<svg xmlns="http://www.w3.org/2000/svg" viewBox="-0.8 -0.8 16 16" id="Hackerrank--Streamline-Font-Awesome" height="16" width="16" style="background-color: #192533"><desc>Hackerrank Streamline Icon: https://streamlinehq.com</desc><!--! Font Awesome Free 6.5.2 by @fontawesome - https://fontawesome.com License - https://fontawesome.com/license/free (Icons: CC BY 4.0, Fonts: SIL OFL 1.1, Code: MIT License) Copyright 2024 Fonticons, Inc.--><path d="M13.4296875 3.6C13.021875 2.89828125 8.01928125 0 7.204500000000001 0S1.38515625 2.8909687500000003 0.9798750000000002 3.6s-0.40753125 6.491250000000001 0 7.2 5.4106875 3.6 6.224625 3.6S13.021875 11.505374999999999 13.429406250000001 10.8s0.40809375 -6.496875 0.00028125000000000003 -7.2zM8.89115625 11.649937500000002c-0.1125 0 -1.1505937499999999 -1.0060312500000002 -1.06875 -1.08815625 0.02446875 -0.02446875 0.1760625 -0.041625 0.49359375000000005 -0.05146875 0 -0.73771875 0.01659375 -1.92909375 0.0264375 -2.42775 0 -0.05625 -0.012375 -0.09646875 -0.012375 -0.16453125h-2.2480312500000004c0 0.1996875 -0.012937500000000001 1.0181250000000002 0.03853125 2.04975 0.0064687500000000005 0.1276875 -0.044437500000000005 0.16875 -0.1614375 0.1670625 -0.28490625 0 -0.57009375 -0.00309375 -0.85528125 -0.0022500000000000003 -0.1153125 0 -0.16509375 -0.04303125 -0.1614375 -0.17184375000000002 0.025875000000000002 -0.9405 0.084375 -2.3625000000000003 -0.00421875 -5.98134375v-0.08915625c-0.27196875 -0.00984375 -0.46068749999999997 -0.028125 -0.4854375000000001 -0.051750000000000004 -0.082125 -0.082125 0.9714375 -1.08815625 1.0825312500000002 -1.08815625s1.1579062500000001 1.0063125000000002 1.0763437500000002 1.08815625c-0.02446875 0.02446875 -0.2221875 0.04190625 -0.47165625 0.051750000000000004v0.08887500000000001c-0.0680625 0.72421875 -0.05625 2.23846875 -0.07396875 2.96409375h2.2573125000000003c0 -0.12796875 0.010968750000000001 -0.9770625000000001 -0.03375 -2.352375 -0.0028125000000000003 -0.09534375 0.02671875 -0.14540625000000001 0.11840625 -0.14625000000000002 0.31134375000000003 -0.0022500000000000003 0.62296875 -0.00365625 0.9345937499999999 -0.0016875 0.0973125 0 0.12853125 0.048375 0.1265625 0.1513125C9.365625 9.97425 9.450000000000001 9.59878125 9.450000000000001 10.51003125c0.24946875 0.00984375 0.4730625 0.028125 0.49753125000000004 0.051750000000000004 0.081 0.08184375 -0.9455625 1.08815625 -1.0569375 1.08815625z" fill="#18c8e7" stroke-width="0.0313"></path></svg>