<svg width="19" height="18" viewBox="0 0 19 18" fill="none" xmlns="http://www.w3.org/2000/svg">
<g clip-path="url(#clip0_5_2317)">
<path d="M15.8622 15.9141L11.8342 11.8861C12.5295 11.023 12.9791 10.0549 13.1829 8.98202C13.3867 7.90909 13.3327 6.85115 13.021 5.8082C12.7093 4.74126 12.1579 3.81219 11.3667 3.02098C10.7313 2.38562 10.009 1.9031 9.19984 1.57343C8.39065 1.24376 7.5425 1.07892 6.65538 1.07892C5.76827 1.07892 4.92012 1.24376 4.11093 1.57343C3.30174 1.9031 2.58246 2.38262 1.95309 3.01199C1.32372 3.64136 0.844195 4.36064 0.514525 5.16983C0.184855 5.97902 0.0200195 6.82718 0.0200195 7.71429C0.0200195 8.6014 0.184855 9.44955 0.514525 10.2587C0.844195 11.0679 1.32372 11.7872 1.95309 12.4166C2.58246 13.046 3.30174 13.5285 4.11093 13.8641C4.92012 14.1998 5.76827 14.3676 6.65538 14.3676C7.42262 14.3676 8.16288 14.2418 8.87616 13.99C9.58945 13.7383 10.2398 13.3726 10.8272 12.8931L14.8552 16.9211L15.8622 15.9141ZM6.65538 12.9291C5.96008 12.9291 5.29474 12.7972 4.65938 12.5335C4.02402 12.2697 3.46058 11.8921 2.96907 11.4006C2.47756 10.9091 2.10294 10.3457 1.84519 9.71029C1.58745 9.07493 1.45858 8.40959 1.45858 7.71429C1.45858 7.01898 1.58745 6.35365 1.84519 5.71828C2.10294 5.08292 2.47756 4.51948 2.96907 4.02798C3.46058 3.53647 4.02402 3.16184 4.65938 2.9041C5.29474 2.64636 5.96008 2.51749 6.65538 2.51749C7.35069 2.51749 8.01602 2.64636 8.65139 2.9041C9.28675 3.16184 9.85019 3.53647 10.3417 4.02798C11.013 4.6993 11.4626 5.49051 11.6903 6.4016C11.9301 7.27673 11.9301 8.15785 11.6903 9.04496C11.4626 9.95605 11.013 10.7413 10.3417 11.4006C9.85019 11.8921 9.28675 12.2697 8.65139 12.5335C8.01602 12.7972 7.35069 12.9291 6.65538 12.9291Z" fill="white"/>
</g>
<defs>
<clipPath id="clip0_5_2317">
<rect width="18" height="18" fill="white" transform="matrix(1 0 0 -1 0.0200195 18)"/>
</clipPath>
</defs>
</svg>
