<svg xmlns="http://www.w3.org/2000/svg" viewBox="0 0 16 16" id="Hackerrank--Streamline-Font-Awesome" height="16" width="16"><desc>Hackerrank Streamline Icon: https://streamlinehq.com</desc><!--! Font Awesome Free 6.5.2 by @fontawesome - https://fontawesome.com License - https://fontawesome.com/license/free (Icons: CC BY 4.0, Fonts: SIL OFL 1.1, Code: MIT License) Copyright 2024 Fonticons, Inc.--><path d="M14.921875 4C14.46875 3.2203125 8.9103125 0 8.005 0S1.5390625 3.2121875 1.08875 4s-0.4528125 7.2125 0 8 6.011875 4 6.91625 4S14.46875 12.78375 14.9215625 12s0.4534375 -7.21875 0.0003125 -8zM9.8790625 12.944375c-0.125 0 -1.2784375 -1.1178125 -1.1875 -1.2090625 0.0271875 -0.0271875 0.195625 -0.04625 0.5484375 -0.0571875 0 -0.8196875 0.0184375 -2.1434375 0.029375 -2.6975 0 -0.0625 -0.01375 -0.1071875 -0.01375 -0.1828125h-2.4978125c0 0.221875 -0.014375 1.13125 0.0428125 2.2775 0.0071875 0.141875 -0.049375 0.1875 -0.179375 0.185625 -0.3165625 0 -0.6334375 -0.0034375 -0.9503125 -0.0025 -0.128125 0 -0.1834375 -0.0478125 -0.179375 -0.1909375 0.02875 -1.045 0.09375 -2.625 -0.0046875 -6.6459375v-0.0990625c-0.3021875 -0.0109375 -0.511875 -0.03125 -0.539375 -0.0575 -0.09125 -0.09125 1.079375 -1.2090625 1.2028125 -1.2090625s1.2865625 1.118125 1.1959375 1.2090625c-0.0271875 0.0271875 -0.246875 0.0465625 -0.5240625 0.0575v0.09875c-0.075625 0.8046875 -0.0625 2.4871875 -0.0821875 3.2934375h2.508125c0 -0.1421875 0.0121875 -1.085625 -0.0375 -2.61375 -0.003125 -0.1059375 0.0296875 -0.1615625 0.1315625 -0.1625 0.3459375 -0.0025 0.6921875 -0.0040625 1.0384375 -0.001875 0.108125 0 0.1428125 0.05375 0.140625 0.168125C10.40625 11.0825 10.5 10.6653125 10.5 11.6778125c0.2771875 0.0109375 0.525625 0.03125 0.5528125 0.0575 0.09 0.0909375 -1.050625 1.2090625 -1.174375 1.2090625z" fill="#00d800" stroke-width="0.0313"></path></svg>