<svg width="126" height="162" viewBox="0 0 126 162" fill="none" xmlns="http://www.w3.org/2000/svg">
<path d="M82.7174 7.15148C81.9347 6.76014 80.9563 6.76014 79.978 7.15148L14.8196 30.632C13.0586 31.219 12.0802 32.98 12.2759 34.741L22.0594 121.228C22.2551 122.402 23.0378 123.576 24.0162 124.163L79.1953 154.296C80.3693 154.883 81.739 154.883 82.913 154.296L138.092 124.163C139.266 123.576 140.049 122.402 140.049 121.228L149.832 34.741C150.028 32.98 149.05 31.219 147.289 30.632L82.7174 7.15148Z" stroke="#738F93" stroke-width="7.82683" stroke-miterlimit="10"/>
<path d="M81.3478 20.8484L37.5176 118.292H54.1496L62.9548 96.573H81.5435H100.132L108.742 118.292H125.374L81.3478 20.8484ZM81.3478 82.8761H68.8249L81.5435 52.7428L94.2621 82.8761H81.3478Z" fill="#738F93"/>
</svg>
