<svg width="126" height="162" viewBox="0 0 126 162" fill="none" xmlns="http://www.w3.org/2000/svg">
<g clip-path="url(#clip0_5_2443)">
<path d="M146.311 50.3947C146.311 47.851 145.724 45.6986 144.745 43.7419C143.767 41.7852 142.006 40.4155 140.049 39.0458C122.439 28.871 104.828 18.6961 87.218 8.5212C82.5219 5.7818 77.8258 5.7818 73.1297 8.71687C66.0855 12.826 31.0605 32.98 20.4942 39.0458C16.1895 41.5895 14.0371 45.503 14.0371 50.3947V111.64C14.0371 114.183 14.6241 116.336 15.6025 118.292C16.5808 120.249 18.3419 121.815 20.4942 123.184C31.0605 129.25 66.0855 149.404 73.1297 153.513C77.8258 156.253 82.5219 156.448 87.218 153.709C104.828 143.534 122.439 133.359 140.049 123.184C142.201 122.01 143.767 120.249 144.941 118.292C145.919 116.336 146.506 114.183 146.506 111.835V50.3947H146.311Z" stroke="#738F93" stroke-width="7.82683"/>
<path d="M99.1537 91.8769C95.436 98.5297 88.1961 103.03 80.1736 103.03C71.9555 103.03 64.9113 98.5297 61.1936 92.0726C59.4325 88.9419 58.2585 85.2241 58.2585 81.3107C58.2585 69.1791 68.042 59.3956 80.1736 59.3956C88.1961 59.3956 95.2403 63.7003 99.1537 70.3532L118.329 59.3956C110.698 46.2856 96.61 37.4805 80.3693 37.4805C56.1061 37.4805 36.5391 57.2432 36.5391 81.3107C36.5391 89.3332 38.6914 96.7687 42.4092 103.226C50.0403 116.336 64.3243 125.337 80.565 125.337C96.8056 125.337 111.09 116.336 118.721 103.226L99.1537 91.8769Z" stroke="#738F93" stroke-width="7.82683"/>
<path d="M136.527 74.2665H115.395V78.5713H136.527V74.2665ZM136.527 83.8544H115.395V88.1592H136.527V83.8544Z" fill="#738F93"/>
<path d="M118.917 70.7444H123.221V91.8769H118.917V70.7444Z" fill="#738F93"/>
</g>
<defs>
<clipPath id="clip0_5_2443">
<rect width="160.45" height="160.45" fill="white" transform="translate(0.340088 0.890015)"/>
</clipPath>
</defs>
</svg>
