<svg width="120" height="155" viewBox="0 0 120 155" fill="none" xmlns="http://www.w3.org/2000/svg">
<path d="M78.2452 148.524C77.6824 148.712 76.9319 148.712 76.1815 148.524L28.341 135.204C26.8401 134.829 25.7145 133.515 25.5268 132.014L14.8331 10.2557C14.6455 8.00439 16.334 6.1283 18.5853 6.1283H136.029C138.28 6.1283 139.969 8.00439 139.781 10.2557L128.9 131.827C128.712 133.328 127.587 134.641 126.086 135.016L78.2452 148.524Z" stroke="#738F93" stroke-width="7.50439"/>
<path d="M77.3072 32.3937H37.9092L39.2224 48.1529H77.3072H99.4452L97.9443 64.2873H77.3072H40.7233L42.0366 80.0466H77.3072H96.631L94.7549 100.308L77.3072 105.186L59.6719 100.308L58.5463 87.7386H42.787L45.0383 112.503L77.3072 121.508L109.576 112.503L109.764 109.877L113.516 68.4148L113.891 64.2873L116.705 32.3937H77.3072Z" fill="#738F93"/>
</svg>
