<svg width="123" height="124" viewBox="0 0 123 124" fill="none" xmlns="http://www.w3.org/2000/svg">
<path d="M93.501 77.0658C92.8193 77.0658 92.2467 76.575 92.1375 75.8662C90.6925 64.4415 80.9038 55.8252 69.3971 55.8252C68.6338 55.8252 68.0339 55.2252 68.0339 54.4619V49.172C68.0339 48.4087 68.6338 47.8088 69.3971 47.8088C70.1607 47.8088 70.7606 48.4087 70.7606 49.172V53.1531C83.0306 53.8075 93.2827 63.2145 94.8369 75.539C94.9461 76.2752 94.4008 76.9569 93.6646 77.0658H93.501ZM29.6423 77.0658H29.4787C28.7425 76.9569 28.1973 76.2752 28.3064 75.539C29.8877 63.2145 40.1127 53.8075 52.3827 53.1531V49.172C52.3827 48.4087 52.9827 47.8088 53.7462 47.8088C54.5095 47.8088 55.1095 48.4087 55.1095 49.172V54.489C55.1095 55.2526 54.5095 55.8525 53.7462 55.8525C42.2395 55.8525 32.4509 64.4686 31.0058 75.8935C30.8967 76.575 30.2967 77.0658 29.6423 77.0658Z" fill="#738F93"/>
<path d="M61.572 63.7869C55.4914 63.7869 49.8472 61.033 46.0844 56.2339C45.621 55.6342 45.7299 54.7889 46.3298 54.3254C46.9298 53.8617 47.7749 53.9709 48.2386 54.5708C51.4832 58.7153 56.3368 61.0875 61.572 61.0875C66.8072 61.0875 71.6878 58.7153 74.9054 54.5708C75.3688 53.9709 76.2142 53.8617 76.8139 54.3254C77.4138 54.7889 77.523 55.6342 77.0593 56.2339C73.2965 61.033 67.6523 63.7869 61.572 63.7869ZM92.3288 122.71H30.8152C27.216 122.71 24.2983 119.793 24.2983 116.193V112.403C24.2983 110.904 25.5253 109.677 27.025 109.677H96.1187C97.6184 109.677 98.8454 110.904 98.8454 112.403V116.193C98.8454 119.793 95.928 122.71 92.3288 122.71ZM96.1187 112.403H26.9977V116.193C26.9977 118.293 28.6884 119.983 30.7878 119.983H92.3014C94.4009 119.983 96.0916 118.293 96.0916 116.193V112.403H96.1187Z" fill="#738F93"/>
<path d="M91.0745 112.404C90.3109 112.404 89.711 111.804 89.711 111.04C89.711 110.277 90.3109 109.677 91.0745 109.677C92.0287 109.677 92.3015 108.423 92.3559 108.177L98.0001 78.0748C98.0001 78.0204 98.0546 77.8294 97.8365 77.584C97.5911 77.2842 97.1277 77.0661 96.7187 77.0661H26.3978C25.9888 77.0661 25.5527 77.2842 25.2799 77.584C25.0619 77.8294 25.1163 78.0204 25.1163 78.0748L30.7605 108.177C30.815 108.423 31.0877 109.677 32.042 109.677C32.8055 109.677 33.4055 110.277 33.4055 111.04C33.4055 111.804 32.8055 112.404 32.042 112.404C30.0517 112.404 28.5246 110.931 28.0885 108.668L22.4442 78.5656C22.2533 77.6114 22.526 76.6298 23.1804 75.8391C23.9439 74.912 25.1708 74.3394 26.3978 74.3394H96.7187C97.9457 74.3394 99.1727 74.912 99.936 75.8391C100.59 76.6298 100.863 77.6114 100.672 78.5656L95.028 108.668C94.5919 110.931 93.0648 112.404 91.0745 112.404Z" fill="#738F93"/>
<path d="M61.5718 101.278C57.209 101.278 53.6916 97.7336 53.6916 93.3711C53.6916 89.0084 57.2364 85.4636 61.5718 85.4636C65.9072 85.4636 69.4517 89.0084 69.4517 93.3711C69.4517 97.7336 65.9072 101.278 61.5718 101.278ZM61.5718 88.2177C58.7359 88.2177 56.4184 90.5352 56.4184 93.3982C56.4184 96.2612 58.7359 98.579 61.5718 98.579C64.4074 98.579 66.7252 96.2612 66.7252 93.3982C66.7252 90.5352 64.4074 88.2177 61.5718 88.2177ZM61.5718 52.6618C52.2466 52.6618 44.6663 45.0818 44.6663 35.7566V30.3578C44.6663 30.276 44.6663 30.1942 44.6936 30.1397C45.8388 23.3503 50.0924 16.4245 57.0454 16.2609C64.5984 16.0701 69.3154 14.325 69.3428 14.325C69.5335 14.2432 69.7789 14.2159 69.9698 14.2432C76.841 15.0339 78.3408 28.5308 78.477 30.0579V35.7839C78.477 45.0818 70.897 52.6618 61.5718 52.6618ZM47.3657 30.4669V35.7566C47.3657 43.582 53.719 49.9353 61.5444 49.9353C69.3699 49.9353 75.7232 43.582 75.7232 35.7566V30.2215C75.396 26.9222 73.6508 17.8151 69.888 16.9699C68.6066 17.4061 63.9711 18.7967 57.0454 18.9603C50.9649 19.1239 48.1019 26.2133 47.3657 30.4669Z" fill="#738F93"/>
<path d="M46.0025 31.7213C45.3754 31.7213 44.8301 31.3123 44.6665 30.685C44.4483 29.8399 42.6487 22.2325 43.3031 19.1241C43.6031 17.7335 41.1491 16.0975 39.9766 15.5521C39.5949 15.3613 39.2949 15.0068 39.2131 14.5705C39.1313 14.1343 39.2404 13.698 39.5402 13.3708C39.9492 12.9073 49.7108 2.32778 60.3448 2.19145C64.5166 2.13692 68.2249 3.69113 71.4151 6.82678C72.5875 6.96313 75.1506 7.50845 77.1683 10.017C80.3858 13.9707 80.7948 20.8691 78.3953 30.4943C78.2045 31.2305 77.4683 31.6666 76.7593 31.4759C76.0231 31.285 75.5869 30.5488 75.7776 29.8126C78.4771 18.9059 76.8684 13.9434 75.0688 11.7075C73.2692 9.47165 70.897 9.49893 70.8696 9.49893C70.488 9.49893 70.1063 9.36258 69.8336 9.08993C67.1342 6.28145 63.944 4.86358 60.3993 4.91813C52.9555 5.02718 45.5935 11.2985 42.7851 13.9707C44.3938 15.0613 46.5206 17.0518 45.9753 19.6421C45.5663 21.5508 46.575 27.004 47.3112 30.0035C47.5022 30.7397 47.0387 31.4759 46.3025 31.6395C46.2207 31.694 46.1116 31.7213 46.0025 31.7213Z" fill="#738F93"/>
</svg>
