<svg width="120" height="155" viewBox="0 0 120 155" fill="none" xmlns="http://www.w3.org/2000/svg">
<g clip-path="url(#clip0_5_2472)">
<g clip-path="url(#clip1_5_2472)">
<mask id="mask0_5_2472" style="mask-type:luminance" maskUnits="userSpaceOnUse" x="0" y="0" width="155" height="155">
<path d="M154.79 0.5H0.949951V154.34H154.79V0.5Z" fill="white"/>
</mask>
<g mask="url(#mask0_5_2472)">
<path d="M13.6464 62.7047C13.3491 62.7047 13.2748 62.5555 13.4234 62.3316L14.9844 60.3172C15.133 60.0934 15.5047 59.9442 15.802 59.9442H42.3379C42.6352 59.9442 42.7095 60.168 42.5609 60.3918L41.2973 62.3316C41.1486 62.5555 40.777 62.7793 40.554 62.7793L13.6464 62.7047Z" fill="#738F93"/>
<path d="M2.42256 69.5684C2.12524 69.5684 2.05091 69.419 2.19957 69.1953L3.76051 67.1807C3.90917 66.957 4.28082 66.8076 4.57814 66.8076H38.4727C38.77 66.8076 38.9186 67.0313 38.8444 67.2557L38.2497 69.046C38.1753 69.3447 37.878 69.4934 37.5807 69.4934L2.42256 69.5684Z" fill="#738F93"/>
<path d="M20.4101 76.4322C20.1128 76.4322 20.0385 76.2085 20.1871 75.9848L21.2277 74.1194C21.3764 73.8957 21.6737 73.6714 21.971 73.6714H36.8371C37.1344 73.6714 37.283 73.8957 37.283 74.1938L37.1344 75.9848C37.1344 76.2828 36.8371 76.5065 36.6141 76.5065L20.4101 76.4322Z" fill="#738F93"/>
<path d="M97.5653 61.3615C92.8822 62.5553 89.6861 63.4506 85.0773 64.6442C83.9627 64.9429 83.8883 65.0173 82.9223 63.8982C81.807 62.6299 80.9897 61.8092 79.4289 61.0632C74.7457 58.7503 70.2119 59.4218 65.9749 62.1823C60.9204 65.4647 58.3188 70.3145 58.3932 76.3579C58.4675 82.3262 62.5556 87.2504 68.428 88.0709C73.4823 88.7426 77.7187 86.9517 81.064 83.1467C81.7326 82.3262 82.3275 81.4307 83.071 80.3866C80.3948 80.3866 77.0501 80.3866 68.7248 80.3866C67.164 80.3866 66.7922 79.4167 67.3127 78.1482C68.2793 75.8355 70.0632 71.9561 71.1035 70.0158C71.3266 69.5684 71.8471 68.8223 72.9618 68.8223C76.7527 68.8223 90.7265 68.8223 100.018 68.8223C99.8691 70.8369 99.8691 72.851 99.5723 74.8656C98.7544 80.2372 96.7474 85.1614 93.477 89.4888C88.1253 96.5763 81.1384 100.978 72.2926 102.172C65.0085 103.141 58.2445 101.724 52.2981 97.2474C46.7977 93.0694 43.6758 87.5484 42.8581 80.6846C41.8918 72.5529 44.2704 65.241 49.1762 58.8249C54.4536 51.8865 61.4407 47.4846 69.9888 45.9179C76.9757 44.6495 83.6652 45.4702 89.6861 49.5736C93.6257 52.1849 96.45 55.766 98.3082 60.0933C98.7544 60.7647 98.4569 61.1378 97.5653 61.3615Z" fill="#738F93"/>
<path d="M122.171 102.619C115.406 102.47 109.237 100.53 104.034 96.0539C99.6485 92.249 96.898 87.3991 96.0064 81.6545C94.6686 73.2241 96.9724 65.7635 102.027 59.1233C107.453 51.961 113.994 48.2306 122.839 46.6639C130.421 45.321 137.557 46.067 144.024 50.4688C149.896 54.4976 153.538 59.944 154.504 67.1064C155.768 77.1784 152.869 85.3851 145.956 92.3983C141.051 97.3968 135.03 100.53 128.117 101.948C126.11 102.321 124.103 102.395 122.171 102.619ZM139.861 72.478C139.787 71.5081 139.787 70.762 139.638 70.0159C138.3 62.6298 131.536 58.4518 124.475 60.0932C117.562 61.6599 113.102 66.0615 111.467 73.0747C110.129 78.8944 112.954 84.7884 118.305 87.1754C122.394 88.9664 126.481 88.7427 130.421 86.728C136.293 83.6692 139.489 78.8944 139.861 72.478Z" fill="#738F93"/>
</g>
</g>
</g>
<defs>
<clipPath id="clip0_5_2472">
<rect width="153.84" height="153.84" fill="white" transform="translate(0.949951 0.5)"/>
</clipPath>
<clipPath id="clip1_5_2472">
<rect width="153.84" height="153.84" fill="white" transform="translate(0.949951 0.5)"/>
</clipPath>
</defs>
</svg>
