<svg width="126" height="162" viewBox="0 0 126 162" fill="none" xmlns="http://www.w3.org/2000/svg">
<path d="M20.3962 14.0408L31.336 134.257L79.1062 147.749L127.18 134.196L137.999 14.1015L20.3962 14.0408ZM74.7915 118.637L40.2702 109.338L40.2094 95.2385L62.9398 101.437L63.1221 39.81H74.8523V118.637H74.7915ZM118.368 127.693L79.7139 138.268L79.2887 24.7374H127.485L118.368 127.693Z" fill="#738F93"/>
<path d="M121.225 53.8489L122.257 39.8096L84.5764 39.992L85.0624 91.1048L107.854 87.2153L107.489 98.5805L84.5764 104.719L84.8191 118.637L116.484 110.371L119.644 71.8996L96.2451 74.513V53.9705L121.225 53.8489Z" fill="#738F93"/>
</svg>
