<svg width="126" height="162" viewBox="0 0 126 162" fill="none" xmlns="http://www.w3.org/2000/svg">
<path d="M62.3101 121.391L68.7152 117.503L61.6696 119.447C57.186 120.743 54.6239 122.687 53.9834 124.63C53.9834 125.278 53.9834 127.222 55.9049 128.518C59.1075 131.11 67.4343 133.701 77.6823 133.701C85.3686 133.701 94.3364 132.405 102.663 128.518L104.584 127.87L102.663 127.222C98.1792 125.278 94.9768 123.335 94.9768 123.335H94.3364C82.1662 125.278 76.4014 125.278 65.5127 123.982C61.0291 123.335 61.0291 122.687 61.0291 122.687C61.0291 122.687 61.6696 122.038 62.3101 121.391Z" fill="#738F93" stroke="#738F93" stroke-width="1.33708"/>
<path d="M126.362 135.644C127.003 134.348 126.362 132.405 123.16 131.109L116.755 128.517L121.878 133.052C121.878 133.052 122.519 133.7 122.519 134.348C122.519 134.997 121.878 136.292 118.036 136.94C102.663 141.475 52.7025 143.42 38.6111 136.94C37.9706 136.94 37.9706 136.94 37.9706 136.94C37.9706 136.292 42.4542 134.348 46.2973 133.7C49.4999 133.052 50.781 133.052 50.781 133.052H53.9836L51.4215 131.109C47.5784 128.517 35.4085 131.757 30.2844 134.997C27.7223 136.94 27.0818 138.236 27.0818 140.18C27.7223 142.123 30.2844 143.42 34.768 144.067C48.2189 146.011 61.0293 147.307 73.1991 147.307C103.304 147.307 125.081 141.475 126.362 135.644Z" fill="#738F93" stroke="#738F93" stroke-width="1.33708"/>
<path d="M62.9505 102.6L57.8263 104.544C51.4212 106.488 48.8591 109.079 49.4996 111.671C50.7807 115.559 61.0289 118.151 73.8395 118.151C83.4471 118.151 94.3356 116.854 104.584 113.615L107.146 112.967L104.584 111.671C101.381 110.376 99.46 108.431 99.46 108.431L98.8195 107.784H98.179C82.1661 111.023 72.5585 111.023 61.0289 109.728C57.1858 109.079 56.5454 108.431 56.5454 108.431C56.5454 107.784 57.1858 106.488 57.8263 106.488L62.9505 102.6C64.2316 102.6 65.5126 102.6 67.4342 102.6C80.2448 102.6 94.3356 101.304 103.944 98.7129C106.506 96.7688 110.349 95.4731 110.349 95.4731L118.035 92.2334L109.709 93.529C109.709 93.529 98.8195 95.4731 88.5714 96.121C86.0089 96.121 83.4471 96.7688 80.8852 96.7688L84.728 94.8253C85.3685 94.8253 94.3356 89.6421 96.2577 81.867C96.8981 78.6272 96.2577 76.0353 94.3356 72.7955L93.6951 71.4999C91.1333 67.6123 88.5714 63.7248 89.2119 60.4851C90.4928 55.3017 97.5386 49.4704 112.271 40.3994L118.035 37.1598L111.63 39.1036C110.349 39.1036 84.728 45.5828 80.2448 60.4851C78.3227 66.3164 80.2448 72.7955 86.0089 79.275C87.931 81.2185 88.5714 83.1626 88.5714 85.7545C87.931 89.6421 84.728 92.8812 84.728 92.8812L80.2448 96.7688C69.996 97.4166 61.0289 97.4166 55.9048 96.7688C52.0617 96.121 51.4212 95.4731 51.4212 95.4731C52.0617 94.1775 58.4669 91.5856 65.5126 90.2899L71.9181 88.9936L65.5126 88.3458C64.872 88.3458 55.2643 87.698 43.0944 93.529C40.5324 94.8253 39.8918 96.121 39.8918 97.4166C39.8918 100.656 50.1401 101.953 62.9505 102.6Z" fill="#738F93"/>
<path d="M62.9505 102.6L57.8263 104.544C51.4212 106.488 48.8591 109.079 49.4996 111.671C50.7807 115.559 61.0289 118.151 73.8395 118.151C83.4471 118.151 94.3356 116.854 104.584 113.615L107.146 112.967L104.584 111.671C101.381 110.376 99.46 108.431 99.46 108.431L98.8195 107.784H98.179C82.1661 111.023 72.5585 111.023 61.0289 109.728C57.1858 109.079 56.5454 108.431 56.5454 108.431C56.5454 107.784 57.1858 106.488 57.8263 106.488L62.9505 102.6ZM62.9505 102.6C64.2316 102.6 65.5126 102.6 67.4342 102.6C80.2448 102.6 94.3356 101.304 103.944 98.7129C106.506 96.7688 110.349 95.4731 110.349 95.4731L118.035 92.2334L109.709 93.529C109.709 93.529 98.8195 95.4731 88.5714 96.121C86.0089 96.121 83.4471 96.7688 80.8852 96.7688L84.728 94.8253C85.3685 94.8253 94.3356 89.6421 96.2577 81.867C96.8981 78.6272 96.2577 76.0353 94.3356 72.7955L93.6951 71.4999C91.1333 67.6123 88.5714 63.7248 89.2119 60.4851C90.4928 55.3017 97.5386 49.4704 112.271 40.3994L118.035 37.1598L111.63 39.1036C110.349 39.1036 84.728 45.5828 80.2448 60.4851C78.3227 66.3164 80.2448 72.7955 86.0089 79.275C87.931 81.2185 88.5714 83.1626 88.5714 85.7545C87.931 89.6421 84.728 92.8812 84.728 92.8812L80.2448 96.7688C69.996 97.4166 61.0289 97.4166 55.9048 96.7688C52.0617 96.121 51.4212 95.4731 51.4212 95.4731C52.0617 94.1775 58.4669 91.5856 65.5126 90.2899L71.9181 88.9936L65.5126 88.3458C64.872 88.3458 55.2643 87.698 43.0944 93.529C40.5324 94.8253 39.8918 96.121 39.8918 97.4166C39.8918 100.656 50.1401 101.953 62.9505 102.6Z" stroke="#738F93" stroke-width="1.33708"/>
<path d="M111.631 89.6414L110.35 92.2334L112.912 90.9377C112.912 90.9377 113.552 90.2892 115.474 90.2892C119.317 89.6414 123.16 91.5855 124.441 95.4731C126.363 101.304 120.598 108.431 109.069 114.262H108.428V114.911L105.866 117.502L109.709 116.207C127.003 111.671 131.487 103.896 132.768 100.009C133.409 96.1209 132.768 92.2334 129.566 89.6414C125.722 86.4017 119.957 85.106 114.834 87.0502C112.912 88.3458 111.631 89.6414 111.631 89.6414Z" fill="#738F93" stroke="#738F93" stroke-width="1.33708"/>
<path d="M79.6045 89.6421L82.8068 92.8819L80.8854 88.9943C79.6045 86.4024 77.6831 83.1626 75.7617 80.5707C69.3564 71.4999 63.5915 63.077 80.2449 49.4705C91.7746 40.3996 97.5388 31.3286 98.1792 22.9056C98.8204 15.1305 94.3365 10.595 94.3365 10.595L92.4151 7.35535L93.0555 10.595C96.8983 25.4973 86.6502 33.2724 76.4022 41.6954C71.2778 46.2309 66.1536 50.1185 62.951 55.3019C55.9053 66.3166 66.7941 77.9794 79.6045 89.6421Z" fill="#738F93" stroke="#738F93" stroke-width="1.33708"/>
<path d="M130.845 138.884C130.845 138.884 128.284 143.419 110.349 146.659C87.9304 151.194 61.6693 149.898 46.2968 147.954L43.0942 147.306L46.2968 149.898C46.9373 149.898 50.1399 153.138 66.7934 153.786C71.277 153.786 76.4014 154.434 81.5251 154.434C105.225 154.434 132.767 151.194 133.407 140.179L134.048 134.996L130.845 138.884Z" fill="#738F93" stroke="#738F93" stroke-width="1.33708"/>
</svg>
