<svg width="126" height="161" viewBox="0 0 126 161" fill="none" xmlns="http://www.w3.org/2000/svg">
<path d="M80.7607 155.03C78.6083 155.03 76.8473 154.443 74.8906 153.465L56.4975 142.703C53.7582 141.137 55.1278 140.746 55.9105 140.355C59.4326 138.985 60.2153 138.789 64.1287 136.637C64.52 136.441 65.1071 136.441 65.4984 136.833L79.5867 145.246C80.1737 145.638 80.7607 145.638 81.3477 145.246L136.331 113.743C136.918 113.352 137.114 112.765 137.114 112.178V49.172C137.114 48.585 136.723 47.998 136.136 47.6067L81.7391 16.2993C81.1521 15.908 80.565 15.908 79.978 16.2993L24.7989 47.8023C24.2119 48.1937 23.8205 48.7807 23.8205 49.3677V111.982C23.8205 112.569 24.2119 113.156 24.7989 113.548L39.8655 122.157C48.0837 126.266 52.9755 121.375 52.9755 116.483V54.6508C52.9755 53.6724 53.7582 53.0854 54.7365 53.0854H61.7807C62.759 53.0854 63.346 53.8681 63.5417 54.6508V116.678C63.5417 127.44 57.4759 133.702 47.1053 133.702C43.9746 133.702 41.4309 133.702 34.3868 130.375L19.9071 122.157C16.5807 120.2 14.2327 116.287 14.2327 112.178V49.172C14.2327 45.0629 16.5807 41.1495 20.1028 39.3885L74.8906 7.68982C78.4127 5.73311 82.7174 5.73311 86.6308 7.68982L141.614 39.1928C145.136 41.1495 147.484 44.8673 147.484 48.9763V111.787C147.484 115.896 145.136 119.613 141.614 121.57L86.4352 153.465C84.6741 154.443 82.7174 155.03 80.7607 155.03ZM97.7841 111.787C73.5209 111.787 68.4335 100.829 68.4335 91.6326C68.4335 90.6542 69.2161 90.0672 70.1945 90.0672H77.4343C78.217 90.0672 78.9997 90.6542 78.9997 91.4369C80.1737 98.6767 83.3044 102.199 97.7841 102.199C109.524 102.199 114.416 99.6551 114.416 93.3936C114.416 89.8715 113.046 87.3278 95.0447 85.5668C79.978 84.0014 70.5858 80.675 70.5858 68.7391C70.5858 57.7815 79.978 51.3244 95.6317 51.3244C113.242 51.3244 121.852 57.3902 123.026 70.5001C123.026 70.8915 122.83 71.4785 122.634 71.8698C122.439 72.2612 121.852 72.4568 121.46 72.4568H114.22C113.438 72.4568 112.851 71.8698 112.655 71.0871C110.894 63.456 106.785 61.1079 95.6317 61.1079C83.1088 61.1079 81.5434 65.6084 81.5434 68.7391C81.5434 72.6525 83.3044 74.0222 100.328 76.1746C117.155 78.327 125.374 81.6534 125.374 93.1979C125.374 104.938 115.394 111.787 97.7841 111.787Z" fill="#738F93"/>
</svg>
