<svg width="126" height="161" viewBox="0 0 126 161" fill="none" xmlns="http://www.w3.org/2000/svg">
<path d="M78.1221 153.995L7.56811 113.29C7.02538 113.29 7.02539 112.748 7.02539 112.205V85.6115C7.02539 85.0686 7.02538 85.0686 7.56811 84.5258C8.11083 83.9836 8.11084 84.5258 8.65356 84.5258L78.665 124.688C79.2072 124.688 79.2072 125.231 79.2072 125.773V152.909C79.2072 153.452 79.2072 153.995 78.1221 153.995Z" fill="#738F93"/>
<path d="M148.674 86.4832H147.588L78.1197 125.559C77.5768 125.559 77.5768 126.102 77.5768 126.645V152.696C77.5768 153.238 77.5768 153.238 78.1197 153.781H79.2047L148.674 114.162C149.216 114.162 149.216 113.619 149.216 113.076V87.0261L148.674 86.4832ZM78.6625 71.8295H77.5768L54.2397 85.3975C53.697 85.3975 53.697 85.9404 53.697 86.4832C53.697 87.0261 53.697 87.0261 54.2397 87.5689L77.5768 101.137H78.6625C79.2047 101.137 79.2047 100.594 79.2047 100.051V72.9152C79.2047 72.3723 79.2047 72.3723 78.6625 71.8295Z" fill="#738F93"/>
<path d="M78.1182 101.136C77.0325 100.594 77.0325 100.594 77.0325 100.051V72.9152C77.0325 72.3723 77.0338 72.3723 77.5767 71.8295H78.6624L101.998 85.3975C102.541 85.3975 102.541 85.9404 102.541 86.4832C102.541 87.0261 102.541 87.0261 101.998 87.5683L78.1182 101.136ZM79.2032 75.0859V98.4227L99.8271 86.4832L79.2032 75.0859Z" fill="#738F93"/>
<path d="M78.1221 126.858L7.56811 86.1543C7.02538 86.1543 7.02539 85.6121 7.02539 85.0692C7.02539 84.5264 7.02538 84.5264 7.56811 83.9835L63.4685 51.963H64.5539L78.1221 59.5611V44.9076C78.1221 44.3649 78.1221 44.3649 78.665 43.8221H79.75L148.676 85.0692C149.219 85.0692 149.219 85.6121 149.219 86.1543C149.219 86.6971 149.219 86.6971 148.676 87.24L78.1221 126.858ZM10.2817 85.6121L78.1221 125.231L145.962 86.1543L79.75 48.1639V62.8174C79.75 63.3601 79.75 63.3601 79.2072 63.9029H78.1221L63.4685 55.762L10.2817 85.6121Z" fill="#738F93"/>
<path d="M102.701 21.0253H101.615L78.278 34.5933C77.7358 34.5933 77.7358 35.136 77.7358 35.6788V62.8149C77.7358 63.3576 77.7358 63.3576 78.278 63.9003H79.3637L102.701 50.3323C103.243 50.3323 103.243 49.7895 103.243 49.2468V22.1107C103.243 21.568 103.243 21.0253 102.701 21.0253Z" fill="#738F93"/>
<path d="M78.9747 36.2224L55.0947 22.6543C54.552 22.6543 54.552 22.1116 54.552 21.5689C54.552 21.0262 54.552 21.0262 55.0947 20.4835L78.4318 6.91541H79.5176L102.854 20.4835C103.397 20.4835 103.397 21.0262 103.397 21.5689C103.397 22.1116 103.397 22.1116 102.854 22.6543L78.9747 36.2224ZM57.2656 22.1116L78.4318 34.5942L99.5979 22.1116L78.4318 9.62902L57.2656 22.1116Z" fill="#738F93"/>
<path d="M79.2034 63.3576L55.3237 49.7895C54.781 49.7895 54.781 49.7895 54.781 49.2468V22.1107C54.781 21.568 54.781 21.568 55.3237 21.0253H56.4092L79.7462 34.5933C80.2891 34.5933 80.2891 35.136 80.2891 35.6788V62.8149C80.2891 62.8149 79.7462 63.3576 79.2034 63.3576ZM56.952 48.1614L78.1183 60.644V35.6788L56.952 23.1962V48.1614Z" fill="#738F93"/>
</svg>
