<svg width="126" height="161" viewBox="0 0 126 161" fill="none" xmlns="http://www.w3.org/2000/svg">
<g clip-path="url(#clip0_5_2616)">
<path d="M64.3669 78.2716H96.5793C105.55 78.2716 112.609 70.7658 112.609 61.861V31.4872C112.609 22.8449 105.284 16.3441 96.5245 14.9018C90.9897 13.995 85.2676 13.5798 79.7441 13.6016C74.232 13.6235 69.1283 14.0933 64.4883 14.9018C50.8454 17.2836 48.5366 22.2768 48.5366 31.4872V43.309H80.5724V47.6793H36.1309C26.7631 47.6793 18.5552 53.2624 15.9814 63.8605C13.0208 76.0099 12.8882 83.4394 15.9814 96.1243C18.2791 105.564 23.7473 112.142 33.1151 112.142H44.1068V97.8832C44.1179 87.351 53.4193 78.2716 64.3669 78.2716ZM62.3342 35.5407C58.987 35.5407 56.2805 32.8311 56.2805 29.4878C56.2805 26.1226 58.987 23.3912 62.3342 23.3912C65.6593 23.3912 68.3876 26.1226 68.3876 29.4878C68.3876 32.8311 65.6593 35.5407 62.3342 35.5407ZM144.954 63.8605C142.634 54.6281 138.215 47.6793 128.826 47.6793H117.027V61.861C117.027 72.8417 107.317 81.5494 96.5793 81.5494H64.3669C55.5404 81.5494 48.5366 89.5579 48.5366 98.2984V128.672C48.5366 137.314 55.9932 142.395 64.5105 144.876C74.718 147.847 84.3838 148.383 96.6021 144.876C104.722 142.548 112.609 137.872 112.609 128.672V116.512H80.5724V112.142H128.826C138.193 112.142 141.695 105.827 144.954 96.1243C148.312 86.1276 148.169 76.6764 144.954 63.8605ZM98.601 124.608C101.948 124.608 104.655 127.318 104.655 130.672C104.655 134.037 101.948 136.768 98.601 136.768C95.2763 136.768 92.5474 134.037 92.5474 130.672C92.5474 127.318 95.2763 124.608 98.601 124.608Z" fill="#738F93"/>
</g>
<defs>
<clipPath id="clip0_5_2616">
<rect width="160.45" height="160.45" fill="white" transform="translate(0.340088 0.22998)"/>
</clipPath>
</defs>
</svg>
