<svg width="126" height="161" viewBox="0 0 126 161" fill="none" xmlns="http://www.w3.org/2000/svg">
<g clip-path="url(#clip0_5_2629)">
<path d="M83.1087 115.676C42.8005 115.676 10.1235 93.7606 10.1235 66.758C10.1235 39.7555 42.8005 17.8403 83.1087 17.8403C123.417 17.8403 156.094 39.7555 156.094 66.758C156.29 93.7606 123.417 115.676 83.1087 115.676ZM94.2619 37.0161C63.5416 37.0161 38.6915 52.0827 38.6915 70.4758C38.6915 88.8688 63.7373 103.935 94.2619 103.935C124.982 103.935 147.484 93.7606 147.484 70.4758C147.68 47.1909 124.982 37.0161 94.2619 37.0161Z" stroke="#738F93" stroke-width="7.82683"/>
<path fill-rule="evenodd" clip-rule="evenodd" d="M121.46 104.914C121.46 104.914 126.156 106.283 128.896 107.653C129.874 108.045 131.44 109.023 132.614 110.393C133.788 111.567 134.375 112.936 134.375 112.936L152.963 144.439H122.83L108.742 118.024C108.742 118.024 105.807 113.132 104.046 111.567C102.676 110.393 102.089 109.806 100.719 109.806C99.7408 109.806 93.4794 109.806 93.4794 109.806V144.244H66.8682V56.1918H120.482C120.482 56.1918 144.941 56.5831 144.941 79.8679C144.941 103.153 121.46 104.914 121.46 104.914ZM109.916 75.3675H93.6751V90.4341H109.916C109.916 90.4341 117.351 90.4342 117.351 82.803C117.351 74.9762 109.916 75.3675 109.916 75.3675Z" fill="white" stroke="#738F93" stroke-width="7.82683"/>
</g>
<defs>
<clipPath id="clip0_5_2629">
<rect width="160.45" height="160.45" fill="white" transform="translate(0.340088 0.22998)"/>
</clipPath>
</defs>
</svg>
