<svg width="126" height="161" viewBox="0 0 126 161" fill="none" xmlns="http://www.w3.org/2000/svg">
<g clip-path="url(#clip0_5_2654)">
<path d="M80.4308 93.5623C87.8449 93.5623 93.8551 87.5522 93.8551 80.138C93.8551 72.7239 87.8449 66.7134 80.4308 66.7134C73.0167 66.7134 67.0066 72.7239 67.0066 80.138C67.0066 87.5522 73.0167 93.5623 80.4308 93.5623Z" fill="#738F93"/>
<path d="M80.4313 110.892C61.5783 110.892 45.1054 108.672 32.7775 104.447C24.7818 101.719 17.9894 98.0824 13.1492 93.9375C8.01476 89.5518 5.28711 84.7651 5.28711 80.1388C5.28711 71.2605 15.0211 62.5693 31.3602 56.9001C44.7311 52.247 62.1666 49.6531 80.4045 49.6531C98.3214 49.6531 115.516 52.1668 128.807 56.7664C136.589 59.4405 143.14 62.9169 147.794 66.7677C152.848 70.9931 155.522 75.6194 155.522 80.1388C155.522 89.3647 144.638 98.6975 127.095 104.5C114.687 108.619 98.1075 110.892 80.4313 110.892ZM80.4313 56.0711C63.1293 56.0711 46.0147 58.5848 33.4996 62.9437C18.4708 68.1853 11.7319 75.352 11.7319 80.1388C11.7319 85.1127 18.9788 92.948 34.8634 98.3766C46.5228 102.361 62.3003 104.474 80.4313 104.474C97.4389 104.474 113.297 102.334 125.09 98.4033C141.589 92.9213 149.131 85.086 149.131 80.1388C149.131 77.5983 147.205 74.6033 143.702 71.6884C139.664 68.319 133.781 65.2435 126.748 62.81C114.099 58.4778 97.6529 56.0711 80.4313 56.0711Z" fill="#738F93" stroke="#738F93" stroke-width="2.67417"/>
<path d="M49.9723 147.046C47.2446 147.046 44.8379 146.458 42.8055 145.281C35.1306 140.842 32.4565 128.06 35.6922 111.079C38.3396 97.1464 44.8111 80.7805 53.93 64.9759C62.8885 49.4658 73.6384 35.8274 84.2549 26.6016C90.4589 21.1998 96.7432 17.242 102.412 15.1561C108.59 12.8831 113.938 12.8831 117.842 15.1294C125.838 19.729 128.486 33.8486 124.742 51.926C122.094 64.762 115.783 80.2457 106.959 95.5687C97.5455 111.881 87.3837 125.038 77.5695 133.622C71.2049 139.184 64.6534 143.249 58.6633 145.362C55.5345 146.485 52.5929 147.046 49.9723 147.046ZM56.6844 66.5804L59.4656 68.1852C50.828 83.1605 44.4367 99.2323 41.9765 112.282C39.0082 127.926 41.8695 137.339 45.9878 139.719C47.0039 140.307 48.341 140.628 49.9723 140.628C55.2939 140.628 63.664 137.259 73.3443 128.809C82.6236 120.706 92.3309 108.084 101.396 92.3864C109.9 77.6517 115.944 62.8366 118.457 50.6691C121.961 33.6346 118.939 23.2054 114.633 20.7184C112.441 19.4615 108.884 19.622 104.605 21.1998C99.6581 23.0182 94.0691 26.5748 88.4533 31.4686C78.3717 40.2398 68.0762 53.2898 59.4656 68.2119L56.6844 66.5804Z" fill="#738F93" stroke="#738F93" stroke-width="2.67417"/>
<path d="M110.89 147.126C103.616 147.126 94.3899 142.74 84.7629 134.45C74.0128 125.198 63.0757 111.426 53.9301 95.6215C44.9449 80.1113 38.5269 63.9861 35.826 50.1606C34.2483 42.0846 33.9541 34.6771 34.9703 28.7137C36.0934 22.2155 38.7409 17.5892 42.6719 15.3162C50.6409 10.6899 64.1989 15.4499 77.9973 27.7243C87.7848 36.4153 98.0536 49.6258 106.905 64.922C116.345 81.2344 122.683 96.6109 125.196 109.393C126.828 117.683 127.095 125.385 125.945 131.642C124.715 138.301 121.934 143.034 117.923 145.361C115.917 146.538 113.537 147.126 110.89 147.126ZM59.4923 92.4124C68.1564 107.388 78.9065 120.946 88.9614 129.583C101.022 139.959 110.595 142.205 114.74 139.799C119.046 137.312 122.201 127.123 118.939 110.65C116.532 98.563 110.462 83.8551 101.37 68.1578C92.8389 53.4231 83.0247 40.7742 73.7454 32.5378C60.7492 20.9854 50.213 18.3915 45.9076 20.8784C43.7148 22.1353 42.0836 25.3175 41.3081 29.8101C40.4256 34.998 40.693 41.63 42.1371 48.9305C44.7043 62.0607 50.8549 77.4906 59.4923 92.4124Z" fill="#738F93" stroke="#738F93" stroke-width="2.67417"/>
</g>
<defs>
<clipPath id="clip0_5_2654">
<rect width="160.45" height="160.45" fill="white" transform="translate(0.340088 0.0200195)"/>
</clipPath>
</defs>
</svg>
