<svg width="126" height="161" viewBox="0 0 126 161" fill="none" xmlns="http://www.w3.org/2000/svg">
<g clip-path="url(#clip0_5_2669)">
<path d="M63.933 10.9776C64.52 8.04251 67.2594 5.89014 70.1945 5.89014H90.7399C93.8706 5.89014 96.4144 8.04251 97.197 10.9776L98.3711 17.0434C98.5667 17.8261 98.9581 18.4131 99.7408 18.6087C108.937 21.5438 117.351 26.2399 124.395 32.8927C124.982 33.4797 125.765 33.4797 126.352 33.284L132.026 31.3273C134.962 30.349 138.092 31.523 139.658 34.2624L149.832 52.0684C151.398 54.8078 150.811 58.1342 148.463 60.0909L143.962 64.2C143.375 64.5914 143.18 65.374 143.375 66.1567C144.549 70.8528 144.941 75.7446 144.941 80.4407C144.941 85.1368 144.354 89.8329 143.375 94.7246C143.18 95.5073 143.375 96.0943 143.962 96.6814L148.463 100.79C150.811 102.747 151.398 106.269 149.832 108.813L139.462 126.619C137.897 129.358 134.766 130.532 131.831 129.554L126.156 127.597C125.374 127.402 124.787 127.597 124.2 127.989C117.155 134.446 108.742 139.338 99.5451 142.273C98.7624 142.468 98.3711 143.055 98.1754 143.838L97.0014 149.904C96.4144 152.839 93.675 154.991 90.5442 154.991H70.1945C67.0638 154.991 64.52 152.839 63.7374 149.904L62.5633 143.838C62.3677 143.055 61.9763 142.468 61.1936 142.273C51.9971 139.338 43.5833 134.641 36.5391 127.989C35.9521 127.402 35.1694 127.402 34.5824 127.597L28.908 129.554C25.9729 130.532 22.8422 129.358 21.2768 126.619L11.1019 108.813C9.53656 106.074 10.1236 102.747 12.4716 100.79L16.972 96.6814C17.5591 96.29 17.7547 95.5073 17.5591 94.7246C16.385 90.0286 15.9937 85.1368 15.9937 80.4407C15.9937 75.7446 16.5807 71.0485 17.5591 66.1567C17.7547 65.374 17.5591 64.787 16.972 64.2L12.4716 60.0909C10.1236 58.1342 9.53656 54.6121 11.1019 52.0684L21.2768 34.2624C22.8422 31.523 25.9729 30.349 28.908 31.3273L34.5824 33.284C35.3651 33.4797 35.9521 33.284 36.5391 32.8927C43.5833 26.4356 51.9971 21.5438 61.1936 18.6087C61.9763 18.4131 62.3677 17.8261 62.5633 17.0434L63.933 10.9776Z" stroke="#738F93" stroke-width="7.82683"/>
<path d="M52.9755 56.7646C54.5408 56.7646 55.9105 57.743 56.3019 59.1127L68.2378 97.8555C68.4335 98.2468 68.4335 98.6382 68.4335 98.8339V100.791C68.4335 102.747 66.8681 104.117 65.1071 104.117C63.1503 104.117 61.7807 102.552 61.7807 100.791V99.2252L60.2153 93.9421H46.3227L44.7573 99.2252V100.791C44.7573 102.747 43.1919 104.117 41.4309 104.117C39.4742 104.117 38.1045 102.552 38.1045 100.791V98.8339C38.1045 98.4425 38.1045 98.0512 38.3002 97.8555L50.2361 59.1127C50.0404 57.743 51.4101 56.7646 52.9755 56.7646ZM78.4127 56.7646H92.1096C97.7841 56.7646 102.284 61.2651 102.284 66.9395V77.1144C102.284 82.7889 97.7841 87.2893 92.1096 87.2893H81.9347V100.986C81.9347 102.943 80.3694 104.313 78.6083 104.313C76.6516 104.313 75.2819 102.747 75.2819 100.986V60.0911C75.0863 58.33 76.6516 56.7646 78.4127 56.7646ZM112.655 56.7646H119.504C121.46 56.7646 122.83 58.33 122.83 60.0911C122.83 62.0478 121.265 63.4175 119.504 63.4175V97.4642C121.46 97.4642 122.83 99.0295 122.83 100.791C122.83 102.552 121.265 104.117 119.504 104.117H112.655C110.698 104.117 109.329 102.552 109.329 100.791C109.329 99.0295 110.894 97.4642 112.655 97.4642V63.6131C110.698 63.6131 109.329 62.0478 109.329 60.2867C109.329 58.33 110.698 56.7646 112.655 56.7646ZM81.9347 63.6131V80.6365H92.1096C94.0663 80.6365 95.436 79.0711 95.436 77.3101V67.1352C95.436 65.1785 93.8707 63.8088 92.1096 63.8088H81.9347V63.6131ZM52.9755 71.8313L48.0837 87.485H57.6716L52.9755 71.8313Z" fill="#738F93"/>
</g>
<defs>
<clipPath id="clip0_5_2669">
<rect width="160.45" height="160.45" fill="white" transform="translate(0.340088 0.0200195)"/>
</clipPath>
</defs>
</svg>
