<svg width="123" height="124" viewBox="0 0 123 124" fill="none" xmlns="http://www.w3.org/2000/svg">
<g clip-path="url(#clip0_5_2359)">
<path d="M0.139893 91.6391C0.213793 91.4324 0.342917 91.2715 0.353259 91.1035C0.494653 88.8049 1.37187 86.7732 2.54344 84.8308C3.17049 83.7914 3.95748 82.9073 4.76646 82.0085C5.80043 80.8599 7.03217 79.9903 8.27834 79.1459C9.00433 78.6539 9.90231 78.4005 10.744 78.0983C11.8807 77.6905 13.0362 77.334 14.1866 76.9649C15.0428 76.69 15.9046 76.4325 16.7624 76.1627C17.9516 75.7885 19.1394 75.4098 20.328 75.0337C21.219 74.7517 22.1148 74.4845 23.0002 74.1864C24.0925 73.8188 25.1712 73.4098 26.266 73.0499C26.9033 72.8403 27.5661 72.7101 28.2075 72.5112C29.0743 72.2423 29.9388 71.9616 30.7859 71.6375C30.9487 71.5751 31.1087 71.2977 31.1273 71.1058C31.176 70.5993 31.1716 70.0833 31.1339 69.5751C31.121 69.4042 30.9831 69.1717 30.8355 69.0925C29.3681 68.3077 28.2759 67.0616 27.124 65.9292C26.2663 65.086 25.4616 64.1231 24.9565 62.9609C24.4674 61.8353 23.7986 60.7864 23.3287 59.6543C23.026 58.9246 23.0196 58.0749 22.7375 57.3334C22.3236 56.2453 22.4761 55.1304 22.3727 54.0273C22.3532 53.8189 22.0408 53.4656 21.8764 53.4728C21.1438 53.505 20.6979 52.9559 20.1347 52.6819C19.0944 52.1759 18.4281 51.2393 18.1885 50.1362C18.0254 49.3853 18.0592 48.5418 18.2204 47.7856C18.3576 47.142 18.7551 46.5331 19.1241 45.9651C19.5307 45.3395 19.1744 44.7892 19.0479 44.2321C18.8544 43.3792 18.6396 42.5404 18.4913 41.6706C18.2075 40.0058 18.361 38.3541 18.336 36.6997C18.3196 35.6126 18.4063 34.5112 18.578 33.4372C18.7601 32.2985 19.0049 31.1518 19.3897 30.0681C19.9114 28.5991 20.5308 27.156 21.2281 25.7618C21.6479 24.9223 22.2689 24.1764 22.848 23.426C23.4481 22.6483 24.0718 21.8829 24.7477 21.1713C25.8979 19.9597 27.0545 18.7478 28.4925 17.8549C29.1419 17.4517 29.7846 17.0354 30.404 16.5884C30.5552 16.4792 30.676 16.2292 30.6844 16.0384C30.7174 15.2824 30.6189 14.5132 30.72 13.7694C30.8783 12.605 30.9782 11.3804 31.4286 10.3197C32.1578 8.6019 33.1343 6.98965 34.7214 5.85766C35.2573 5.47564 35.7183 4.99065 36.2379 4.58356C36.4179 4.44237 36.6757 4.40397 36.8901 4.30201C37.5254 3.99976 38.1319 3.61077 38.7955 3.39879C40.0457 2.99941 41.3192 2.67173 42.6609 2.74558C43.3971 2.7861 44.1497 2.66809 44.8731 2.77205C46.0161 2.93629 47.1829 3.1102 48.2613 3.4977C49.3034 3.87205 50.3232 4.41856 51.2109 5.07983C52.0805 5.72755 52.8237 6.5714 53.5243 7.41108C54.1264 8.13284 54.6666 8.93048 55.0986 9.76484C55.9096 11.3315 56.3527 13.0158 56.1378 14.7955C55.9945 15.983 56.3733 16.6887 57.4769 17.2914C58.7762 18.0009 59.941 18.9802 60.9802 20.0723C61.8217 20.9566 62.7292 21.7827 63.5177 22.7108C64.1036 23.4001 64.5995 24.1817 65.0387 24.9757C65.6706 26.1178 66.2534 27.2913 66.781 28.4851C67.0719 29.1429 67.2144 29.8672 67.4102 30.5654C67.6506 31.4224 67.8766 32.2835 68.1087 33.1429C68.1334 33.2336 68.1743 33.3232 68.1805 33.4154C68.2633 34.6143 68.4032 35.8135 68.4095 37.0131C68.4354 41.917 68.4216 46.8211 68.4165 51.725C68.4163 52.0055 68.4221 52.3073 68.3267 52.5624C67.9284 53.6289 67.1694 53.9586 66.0804 53.5592C65.3834 53.3039 64.6982 53.0159 64.0025 52.7567C63.3415 52.5108 62.6736 52.2836 61.9086 52.0128C61.8805 52.3354 61.844 52.6033 61.8369 52.8719C61.8253 53.3071 61.8694 53.7468 61.8222 54.1771C61.7728 54.6284 61.6339 55.0694 61.5538 55.5183C61.5109 55.7584 61.5155 56.0067 61.4892 56.2502C61.3483 57.5519 61.1353 58.8336 60.547 60.0268C60.094 60.9457 59.7375 61.9188 59.2172 62.7961C58.6729 63.7141 58.0027 64.5604 57.3525 65.411C56.9217 65.9744 56.4548 66.5163 55.9558 67.0197C55.6025 67.3762 55.1852 67.6782 54.7651 67.9572C54.3392 68.2402 54.073 68.5649 54.0991 69.1099C54.1289 69.7336 54.1083 70.3595 54.1097 70.9841C54.1107 71.344 54.2523 71.5848 54.6218 71.6997C55.5454 71.9872 56.4553 72.3188 57.3822 72.5937C58.7607 73.0022 60.1095 73.4415 61.6012 73.439C80.6681 73.4071 99.7353 73.4212 118.802 73.4139C120.585 73.4132 121.678 74.4458 122.545 75.8197C122.711 76.0823 122.7 76.4565 122.805 76.8033C122.84 76.9482 122.84 77.0695 122.825 77.2805C122.782 77.6513 122.73 77.9325 122.73 78.2135C122.725 88.9467 122.725 99.6799 122.731 110.413C122.731 110.73 122.802 111.047 122.84 111.365C122.84 111.45 122.84 111.535 122.804 111.686C122.717 111.928 122.678 112.108 122.612 112.278C122.46 112.667 122.364 113.106 122.116 113.424C121.854 113.759 121.939 113.956 122.117 114.261C122.326 114.623 122.452 115.033 122.617 115.421C122.687 115.586 122.765 115.747 122.84 115.909C122.84 116.783 122.84 117.656 122.805 118.606C122.693 118.984 122.681 119.325 122.527 119.58C121.693 120.96 120.597 121.835 118.839 121.833C96.4991 121.808 74.1587 121.812 51.8186 121.833C50.8644 121.834 50.0831 121.535 49.4104 120.944C48.6742 120.298 48.3271 119.396 48.1025 118.467C48.0125 118.094 47.8513 117.948 47.4941 117.957C47.2482 117.963 47.0019 117.954 46.7557 117.954C31.7992 117.954 16.8426 117.954 1.88594 117.954C0.805776 117.954 0.62138 117.835 0.250481 116.871C0.252513 108.842 0.25452 100.865 0.249088 92.8878C0.248872 92.5711 0.177898 92.2543 0.139893 91.9372C0.139893 91.852 0.139893 91.7669 0.139893 91.6391ZM51.9825 115.34C51.7388 115.51 51.3155 115.652 51.2833 115.855C51.156 116.658 51.0984 117.484 51.132 118.295C51.1429 118.559 51.467 118.948 51.7276 119.032C52.2881 119.212 52.9004 119.307 53.4916 119.307C74.8049 119.32 96.1184 119.318 117.432 119.317C117.678 119.317 117.939 119.366 118.167 119.301C118.786 119.123 119.633 119.205 119.78 118.345C119.892 117.689 119.9 116.984 119.787 116.329C119.702 115.834 119.428 115.305 118.654 115.299C118.391 115.275 118.128 115.23 117.865 115.23C96.2331 115.227 74.6011 115.227 52.9689 115.232C52.6703 115.232 52.3714 115.296 51.9825 115.34ZM119.887 108.354C119.887 98.262 119.888 88.1696 119.886 78.0772C119.886 76.7036 119.325 76.1455 117.96 76.1455C96.3367 76.1455 74.7129 76.1455 53.0892 76.1457C52.843 76.1457 52.5938 76.1254 52.352 76.1585C52.1768 76.1827 51.9965 76.2551 51.845 76.3488C51.1986 76.7481 51.028 77.3541 51.0289 78.0881C51.0405 88.8997 51.0367 99.7116 51.0369 110.523C51.0369 110.713 51.0166 110.906 51.0464 111.091C51.1354 111.643 51.2605 112.186 51.935 112.31C52.3552 112.386 52.7799 112.494 53.2027 112.494C74.7127 112.503 96.2227 112.502 117.733 112.501C117.941 112.501 118.152 112.521 118.357 112.493C119.341 112.358 119.881 111.985 119.885 110.91C119.889 110.096 119.887 109.282 119.887 108.354ZM52.345 66.1378C53.1356 65.4824 53.9476 64.8503 54.7056 64.1591C54.9701 63.9178 55.0766 63.5117 55.3007 63.2153C55.5773 62.8491 55.9786 62.5604 56.191 62.1657C56.9381 60.7763 57.8917 59.4842 58.1659 57.8651C58.3425 56.8225 58.7235 55.8092 58.8449 54.7635C58.9643 53.7361 58.9088 52.6822 58.852 51.6442C58.8309 51.2599 58.6959 50.7456 58.4241 50.5387C57.8224 50.0808 57.1071 49.7691 56.4268 49.4194C56.0151 49.2079 55.5645 49.0692 55.1632 48.8415C54.4287 48.4247 53.7153 47.9705 52.9982 47.5239C52.0374 46.9259 51.0693 46.3386 50.1272 45.7125C49.3796 45.2156 48.6628 44.6718 47.9382 44.1409C46.8603 43.3509 45.7715 42.5741 44.719 41.751C44.1752 41.3258 43.7098 40.8011 43.1909 40.342C42.5861 39.8069 41.9491 39.3081 41.3511 38.766C41.076 38.517 40.8715 38.1917 40.6154 37.9195C39.833 37.0882 39.0406 36.2658 38.2526 35.4398C37.7362 34.8984 37.2287 34.2041 36.3732 34.5013C35.2914 34.8771 34.166 35.0797 33.1271 35.6632C31.8826 36.3619 30.555 36.8587 29.3626 37.7246C28.1056 38.6375 27.2658 39.796 26.5274 41.0656C26.094 41.8108 25.7975 42.6568 25.569 43.493C25.3941 44.1326 25.4064 44.8267 25.3638 45.4983C25.3176 46.2287 24.9413 46.9187 24.404 47.0179C23.9632 47.0992 23.4984 47.0416 23.0452 47.0636C21.9423 47.1171 21.4423 47.43 21.1043 48.4354C20.8412 49.218 21.1796 49.9596 21.8741 50.3882C22.4933 50.7703 23.137 50.8201 23.8217 50.8141C24.6884 50.8066 25.3348 51.4583 25.3619 52.3291C25.4188 54.1568 25.2849 55.9682 25.873 57.7879C26.4396 59.5413 27.1397 61.201 28.2515 62.6291C29.1915 63.8363 30.3168 64.9166 31.4596 65.9423C32.1435 66.556 32.984 67.0279 33.817 67.435C34.8916 67.9604 36.0111 68.41 37.1447 68.7934C38.1106 69.1199 39.1118 69.4229 40.1188 69.5245C41.3555 69.6496 42.6164 69.5954 43.8632 69.539C44.528 69.5088 45.1935 69.3442 45.8433 69.1792C46.5394 69.0027 47.2158 68.7498 47.9033 68.5386C49.5178 68.0424 50.9624 67.2341 52.345 66.1378ZM63.4683 28.2249C63.3798 28.1301 63.2692 28.048 63.206 27.9387C62.667 27.0028 62.1644 26.0444 61.5927 25.1294C61.2622 24.6001 60.8614 24.1016 60.426 23.6536C59.6581 22.8633 58.874 22.0819 58.0335 21.3715C57.1204 20.5996 56.1465 19.8972 55.1748 19.1984C54.8801 18.9864 54.4938 18.9063 54.1683 18.7311C53.6775 18.467 53.2262 18.1184 52.7167 17.9033C51.9244 17.5689 51.1141 17.2489 50.2816 17.045C49.0103 16.7336 47.7136 16.5255 46.4273 16.2765C46.2799 16.2479 46.127 16.2479 45.9801 16.218C45.5321 16.1269 45.0895 15.9734 44.6384 15.944C43.922 15.8974 43.196 15.8807 42.4823 15.9437C41.4736 16.0328 40.4666 16.1751 39.4692 16.3525C38.5665 16.513 37.6662 16.7119 36.7856 16.9657C35.8533 17.2343 34.9238 17.5369 34.0336 17.9194C33.2655 18.2495 32.5433 18.6943 31.8275 19.1321C31.6827 19.2205 31.5385 19.5565 31.5966 19.6905C32.1143 20.8838 32.6336 22.0804 33.2399 23.2299C33.8112 24.3132 34.4821 25.3443 35.1205 26.3915C35.5528 27.1001 35.9753 27.8174 36.455 28.4936C37.0527 29.3363 37.7006 30.1441 38.3354 30.9604C39.0762 31.9137 39.7851 32.8965 40.5837 33.7992C41.4445 34.7723 42.3661 35.6963 43.3109 36.5891C44.4181 37.6356 45.5341 38.6823 46.7279 39.6254C48.1877 40.7783 49.7104 41.856 51.2465 42.9071C52.7213 43.9165 54.2472 44.8514 55.752 45.8165C56.0018 45.9768 56.2506 46.1413 56.5144 46.2756C57.1165 46.5825 57.7288 46.8691 58.3343 47.1689C59.1704 47.583 59.994 48.0237 60.8418 48.4114C61.6213 48.7679 62.4512 49.0198 63.2118 49.4099C63.9461 49.7868 64.705 50.0142 65.5799 50.2098C65.5799 49.8635 65.5859 49.6026 65.5792 49.3417C65.4439 44.2147 65.918 39.0729 65.2253 33.9604C65.1031 33.0574 64.9243 32.1506 64.654 31.282C64.3381 30.2673 63.8931 29.2929 63.4683 28.2249ZM12.3012 88.348C12.5787 89.4068 12.9151 90.4542 13.1175 91.5273C13.328 92.6434 13.5217 93.7833 13.5283 94.914C13.566 101.368 13.5452 107.821 13.5457 114.275C13.5457 115.21 13.5629 115.227 14.5033 115.227C19.7269 115.228 24.9505 115.228 30.174 115.227C31.1481 115.227 31.1556 115.219 31.1556 114.242C31.1561 101.335 31.1561 88.4273 31.1554 75.5196C31.1554 75.3306 31.1985 75.1172 31.1254 74.9599C31.0637 74.827 30.8347 74.6515 30.7275 74.6791C29.9485 74.8805 29.1779 75.1174 28.4117 75.3647C27.296 75.7244 26.1888 76.1106 25.0729 76.47C23.722 76.9054 22.3632 77.3163 21.0133 77.7549C20.3968 77.955 19.8028 78.227 19.1824 78.4117C17.7835 78.8279 16.3681 79.1893 14.9717 79.6135C14.0467 79.8945 13.1539 80.2827 12.2269 80.5557C11.0675 80.8974 10.0687 81.5143 9.03874 82.1796C9.55824 83.0174 10.0138 83.8294 10.5443 84.5893C11.3333 85.719 11.8012 86.9912 12.3012 88.348ZM48.0822 104.719C48.0822 102.314 48.0822 99.9106 48.0822 97.5064C48.0822 95.0836 48.0839 92.6606 48.0817 90.2376C48.0793 87.855 48.0924 85.4721 48.072 82.9869C43.2025 84.4576 38.6449 83.7957 34.1082 81.9317C34.1082 82.2904 34.1082 82.477 34.1082 82.6636C34.1082 93.2262 34.1079 103.789 34.1092 114.351C34.1094 115.185 34.1493 115.226 34.9729 115.226C39.1563 115.228 43.3397 115.228 47.5231 115.226C48.178 115.226 48.9861 114.474 49.0212 113.83C49.0256 113.749 48.966 113.653 48.9128 113.582C48.2715 112.718 48.0742 111.734 48.0793 110.681C48.0892 108.732 48.0822 106.782 48.0822 104.719ZM10.5924 110.626C10.4853 104.6 10.8383 98.5671 10.3551 92.5464C10.3104 91.9893 10.2551 91.4034 10.0482 90.8944C9.50895 89.5684 9.33748 88.0837 8.37889 86.9344C8.33579 86.8828 8.34746 86.7889 8.31452 86.7245C8.13669 86.377 7.96989 86.022 7.76651 85.6895C7.54434 85.3264 7.26107 84.9995 7.05177 84.6299C6.87157 84.3117 6.66717 84.2604 6.43873 84.515C6.12995 84.8589 5.89106 85.2674 5.5726 85.6009C4.7099 86.5043 4.26235 87.6703 3.86104 88.7763C3.39674 90.0561 3.14636 91.4777 3.1253 92.8426C3.0444 98.0846 3.09236 103.329 3.09261 108.572C3.09268 110.56 3.10028 112.547 3.08953 114.535C3.08702 115.001 3.2397 115.233 3.7428 115.23C5.80597 115.218 7.86929 115.218 9.93247 115.23C10.4271 115.234 10.601 115.02 10.5956 114.545C10.581 113.277 10.5917 112.008 10.5924 110.626ZM22.6162 29.8351C22.3082 30.9882 21.962 32.1332 21.7044 33.2975C21.5035 34.206 21.3148 35.1363 21.2929 36.0611C21.2442 38.1128 21.138 40.1772 21.521 42.2111C21.6494 42.8928 21.9288 43.5465 22.1392 44.213C22.1992 44.2016 22.2591 44.1905 22.3191 44.1791C22.4858 43.5303 22.6484 42.8805 22.82 42.2328C23.1948 40.818 23.8415 39.5349 24.699 38.3527C24.7941 38.2215 24.8176 38.0209 24.9345 37.9258C25.7711 37.2452 26.3217 36.3002 27.2609 35.6801C28.1622 35.0853 29.016 34.4125 29.995 33.9451C31.0722 33.4309 32.1646 32.9452 33.2711 32.4979C33.8669 32.2569 34.5056 32.1226 35.206 31.9164C35.0266 31.5938 34.9289 31.3726 34.7914 31.1797C34.4557 30.7094 34.0716 30.2716 33.7616 29.7862C33.0896 28.7344 32.4407 27.6671 31.8028 26.594C31.1823 25.5507 30.578 24.4974 29.9879 23.4365C29.8352 23.1615 29.7929 22.8262 29.6472 22.5459C29.4337 22.1357 29.1731 21.7501 28.9325 21.354C28.5913 21.5702 28.2053 21.7392 27.9187 22.0127C27.3795 22.5276 26.8602 23.0732 26.4011 23.6596C25.6455 24.6243 24.8779 25.5909 24.2401 26.633C23.633 27.6248 23.1854 28.7141 22.6162 29.8351ZM48.5413 75.7595C49.027 74.7469 49.7187 73.9654 50.831 73.6046C50.9771 73.5572 51.124 73.2675 51.1325 73.0835C51.1666 72.3473 51.1516 71.6087 51.1415 70.8708C51.1395 70.7358 51.0759 70.6015 51.0134 70.3621C48.3312 71.6225 45.5994 72.2791 42.6868 72.3096C39.78 72.3401 36.9794 71.9294 34.2161 70.9219C34.1779 71.0639 34.1179 71.1835 34.1176 71.3033C34.1118 73.6114 34.1048 75.9194 34.129 78.2273C34.1309 78.4182 34.3124 78.6989 34.4852 78.781C35.5629 79.2924 36.6372 79.8294 37.7609 80.2185C38.7098 80.5472 39.7154 80.8187 40.7108 80.8831C42.8131 81.0189 44.9382 81.0331 46.9815 80.4158C48.0362 80.0973 48.0911 80.3952 48.0829 79.0915C48.0793 78.5428 48.0326 77.9879 48.0984 77.4473C48.1654 76.8979 48.347 76.3626 48.5413 75.7595ZM34.2106 14.8032C40.5276 12.5575 46.8387 12.6236 53.1243 15.0035C53.3142 13.5647 53.1301 12.3743 52.1654 10.5685C51.2213 8.80118 49.8298 7.50963 48.0653 6.62791C47.1693 6.18021 46.2274 5.66064 45.2632 5.55023C43.6047 5.36035 41.8809 5.25783 40.2792 5.93109C39.0687 6.43999 37.8122 6.84485 36.8451 7.87057C35.9671 8.80217 35.008 9.65453 34.4678 10.836C34.1905 11.4432 34.1329 12.164 33.7999 12.7297C33.3546 13.4866 33.6273 14.2113 33.5731 15.014C33.8226 14.9419 33.9819 14.8958 34.2106 14.8032Z" fill="#738F93"/>
<path d="M122.84 111.312C122.802 111.048 122.731 110.731 122.73 110.413C122.725 99.6801 122.725 88.9469 122.729 78.2139C122.729 77.9327 122.782 77.6517 122.825 77.3262C122.84 88.6074 122.84 99.933 122.84 111.312Z" fill="#738F93"/>
<path d="M0.250481 116.871C0.249146 116.924 0.194758 116.931 0.167325 116.931C0.139893 108.636 0.139893 100.34 0.139893 91.9907C0.177898 92.2543 0.248872 92.5711 0.249088 92.8879C0.25452 100.865 0.252513 108.842 0.250481 116.871Z" fill="#738F93"/>
<path d="M112.729 28.3154C114.225 28.3154 115.668 28.2516 117.101 28.3404C117.927 28.3917 118.784 28.5814 119.545 28.9018C120.751 29.4091 121.493 30.42 122.047 31.6003C122.341 32.2276 122.39 32.8493 122.39 33.5124C122.383 40.613 122.422 47.7141 122.358 54.8143C122.345 56.354 121.632 57.6838 120.177 58.4692C119.722 58.7148 119.298 59.0577 118.814 59.1983C118.23 59.3682 117.597 59.4341 116.985 59.4353C109.619 59.4503 102.253 59.4445 94.8876 59.4449C93.9933 59.4449 94.0875 59.4754 93.83 60.3266C93.5052 61.3999 93.2562 62.5357 92.3956 63.3769C92.2 63.5681 92.1221 63.8747 91.9423 64.0877C90.9626 65.2484 89.7777 66.1315 88.3465 66.6651C87.8566 66.8478 86.8898 66.4345 86.6613 65.8965C86.5106 65.5422 86.3629 65.1359 86.39 64.7656C86.4767 63.587 85.998 62.5258 85.6824 61.4578C85.4096 60.5342 84.5895 59.957 83.605 59.6659C82.2444 59.2634 80.8637 59.4895 79.4934 59.4578C78.393 59.4321 77.5201 58.9687 76.6183 58.3953C75.5368 57.7078 75.0278 56.7097 74.6742 55.5699C74.5978 55.3228 74.5607 55.0534 74.5605 54.7942C74.5547 47.5232 74.5569 40.2522 74.5552 32.981C74.5547 30.8687 76.43 28.9345 78.3465 28.5698C79.2623 28.3956 80.211 28.3273 81.1449 28.3259C91.6538 28.3094 102.163 28.3154 112.729 28.3154ZM111.309 31.0422C101.179 31.0422 91.0505 31.0388 80.9213 31.0516C80.3494 31.0526 79.7688 31.1501 79.2076 31.2726C78.249 31.4817 77.3976 32.5874 77.3974 33.5678C77.3952 40.4405 77.3957 47.3131 77.3978 54.1858C77.3978 54.393 77.3589 54.6354 77.4489 54.8015C77.9901 55.8017 78.6096 56.8177 80.1152 56.7279C81.0019 56.6749 81.9068 56.6265 82.7807 56.7439C83.6679 56.8632 84.5575 56.9246 85.4363 57.2913C87.0096 57.9481 87.8898 59.1562 88.5314 60.5996C88.8266 61.2634 88.9346 62.0103 89.1429 62.7765C89.2501 62.7036 89.4331 62.6446 89.5026 62.5216C90.0587 61.5359 90.7964 60.6579 90.9551 59.4527C91.0611 58.6485 91.4236 57.8929 92.146 57.361C92.7697 56.9016 93.443 56.7172 94.1952 56.7172C101.617 56.7184 109.038 56.7151 116.46 56.7228C117.085 56.7235 117.698 56.7393 118.23 56.3426C118.835 55.8903 119.438 55.4619 119.437 54.5667C119.425 47.4857 119.431 40.4049 119.426 33.3239C119.426 33.1029 119.419 32.8466 119.313 32.6668C118.73 31.6792 117.95 31.0124 116.704 31.0345C114.944 31.0659 113.183 31.0424 111.309 31.0422Z" fill="#738F93"/>
<path d="M118.697 115.313C118.533 115.332 118.325 115.341 118.117 115.341C96.288 115.341 74.4593 115.341 52.6308 115.341C52.4795 115.341 52.328 115.338 52.1245 115.333C52.3711 115.296 52.67 115.232 52.9689 115.232C74.6009 115.227 96.2329 115.227 117.865 115.23C118.128 115.23 118.39 115.275 118.697 115.313Z" fill="#738F93"/>
<path d="M87.3749 93.9413C87.152 94.838 86.9345 95.6874 86.7176 96.5369C86.493 97.4161 86.2636 98.2944 86.0468 99.1756C85.9173 99.7012 85.8203 100.235 85.685 100.759C85.5838 101.15 85.4277 101.526 85.3265 101.917C85.1629 102.549 85.0272 103.19 84.874 103.825C84.7259 104.441 83.8868 104.95 83.1458 104.88C82.4737 104.817 81.8985 104.247 81.9621 103.545C82.0238 102.866 82.2399 102.2 82.3994 101.532C82.5775 100.785 82.7639 100.041 82.9546 99.298C83.1765 98.4333 83.4137 97.5727 83.6315 96.707C83.7634 96.1821 83.8612 95.6485 83.9935 95.1238C84.0933 94.7286 84.2414 94.3455 84.337 93.9496C84.5778 92.9508 84.7849 91.9438 85.0352 90.9474C85.3515 89.6882 85.6644 88.4266 86.0385 87.1841C86.472 85.7454 87.6639 85.7388 88.6082 86.4191C89.0799 86.7589 89.0516 87.3886 88.9318 87.9392C88.8328 88.3937 88.6891 88.8385 88.5671 89.2879C88.4226 89.8213 88.2745 90.3537 88.1387 90.8896C88.0017 91.43 87.8827 91.975 87.7471 92.5156C87.6315 92.9769 87.5032 93.4348 87.3749 93.9413Z" fill="#738F93"/>
<path d="M92.6789 94.2627C91.8091 93.4285 90.9565 92.6337 90.1315 91.8114C89.7883 91.4692 89.4821 91.0837 89.199 90.6892C88.9437 90.3334 89.5013 89.4058 89.9642 89.2136C90.9427 88.8073 91.5654 89.2691 92.2128 89.9297C93.2631 91.0019 94.38 92.0084 95.4683 93.0432C96.0804 93.625 96.7081 94.1916 97.2972 94.7961C97.6626 95.171 97.5881 95.8235 97.13 96.2782C96.3567 97.0456 95.5523 97.7816 94.765 98.5347C93.8154 99.4432 92.8408 100.328 91.9315 101.276C91.2142 102.023 89.6162 101.943 89.1912 100.573C89.1542 100.453 89.2413 100.284 89.2989 100.149C89.8444 98.8745 90.9884 98.1306 91.9253 97.2032C92.4601 96.6739 92.9966 96.1463 93.5412 95.6274C93.7846 95.3953 93.7171 95.1916 93.5121 94.9999C93.251 94.7559 92.9763 94.5268 92.6789 94.2627Z" fill="#738F93"/>
<path d="M81.5974 90.6574C81.4996 90.9154 81.4517 91.1758 81.2971 91.3251C79.9827 92.5923 78.6538 93.8442 77.3177 95.0884C77.0287 95.3573 77.0212 95.5548 77.3133 95.8268C78.6519 97.0734 79.9682 98.3435 81.3126 99.5838C81.783 100.018 81.6698 100.568 81.5144 100.994C81.4024 101.302 80.9375 101.593 80.5798 101.676C79.7765 101.864 79.1146 101.552 78.6282 100.853C78.4505 100.598 78.1645 100.42 77.9324 100.202C76.6471 98.993 75.3644 97.7818 74.0786 96.5737C73.302 95.8437 73.302 95.0669 74.0861 94.3401C75.5316 92.9994 76.9735 91.655 78.4266 90.3225C78.8487 89.9355 79.2472 89.4321 79.7535 89.2467C80.8295 88.853 81.5919 89.4769 81.5974 90.6574Z" fill="#738F93"/>
<path d="M25.0213 88.3017C25.0218 87.6395 25.0145 87.0343 25.0249 86.429C25.0363 85.7564 25.4148 85.4411 26.0615 85.3387C27.3589 85.1338 27.9697 86.1654 27.9758 87.1971C27.9961 90.7528 27.9922 94.3087 27.9755 97.8645C27.9722 98.5969 27.7788 99.2798 27.0128 99.6119C25.9567 100.07 25.0307 99.4897 25.0269 98.3449C25.0155 95.0161 25.022 91.6872 25.0213 88.3017Z" fill="#738F93"/>
<path d="M27.9682 80.7683C27.9515 81.4651 28.1039 82.1226 27.6531 82.7238C27.2511 83.2596 26.5935 83.6481 26.0921 83.5074C25.3455 83.2981 25.0314 82.8656 25.0239 82.0203C25.0193 81.5096 25.0108 80.9983 25.0306 80.4883C25.0519 79.9421 25.4283 79.6352 25.9638 79.5498C26.9721 79.3891 27.5633 79.8741 27.9682 80.7683Z" fill="#738F93"/>
<path d="M102.163 34.7892C104.377 34.7905 106.535 34.7825 108.692 34.797C109.678 34.8035 110.285 35.4453 110.223 36.3597C110.18 36.9865 109.496 37.6309 108.868 37.6309C101.884 37.6312 94.9004 37.6312 87.9167 37.6302C87.1459 37.6302 86.3664 37.0249 86.3831 36.4001C86.4063 35.5196 86.871 34.8851 87.8545 34.7992C88.0987 34.7779 88.3463 34.7897 88.5922 34.7897C93.0967 34.7892 97.6013 34.7892 102.163 34.7892Z" fill="#738F93"/>
<path d="M109.093 40.6982C111.42 40.6985 113.689 40.6963 115.959 40.6999C116.714 40.7011 117.326 41.2515 117.406 41.9848C117.468 42.5458 116.778 43.3359 116.152 43.411C115.984 43.431 115.812 43.4243 115.642 43.4243C110.194 43.425 104.747 43.4284 99.2992 43.4168C98.9522 43.4158 98.5937 43.3321 98.261 43.2244C97.7377 43.055 97.3382 42.3749 97.4156 41.8708C97.5192 41.1973 98.056 40.7014 98.7087 40.7009C102.151 40.6973 105.594 40.6985 109.093 40.6982Z" fill="#738F93"/>
<path d="M108.919 47.6665C108.558 48.1967 108.01 48.2952 107.5 48.2984C103.492 48.3231 99.4838 48.3151 95.4756 48.3093C94.8459 48.3085 94.3047 48.0438 94.0327 47.4789C93.728 46.8465 93.8802 46.2241 94.4151 45.7575C94.593 45.6024 94.8727 45.4845 95.1063 45.4835C99.3792 45.4676 103.652 45.4678 107.925 45.4755C108.884 45.4772 109.475 46.4944 109.049 47.3678C109.008 47.4525 108.977 47.5423 108.919 47.6665Z" fill="#738F93"/>
<path d="M82.054 45.4704C84.9836 45.4704 87.8565 45.4695 90.7294 45.4709C91.5481 45.4712 91.9012 45.6902 92.0295 46.2667C92.2105 47.0784 91.9303 47.786 91.2648 48.0805C90.9816 48.2059 90.6583 48.3034 90.3526 48.3051C87.3287 48.3216 84.3045 48.3247 81.2806 48.3105C80.1387 48.3051 79.4292 47.3942 79.7 46.2938C79.8198 45.8066 80.1087 45.4494 80.6934 45.47C81.1276 45.4852 81.5627 45.4712 82.054 45.4704Z" fill="#738F93"/>
<path d="M111.592 52.8555C109.455 52.8552 107.374 52.8584 105.293 52.8533C104.374 52.8511 103.98 52.4719 103.982 51.6195C103.985 50.7541 104.38 50.3598 105.279 50.3589C108.855 50.355 112.43 50.3552 116.006 50.3591C116.729 50.3598 117.347 50.9397 117.353 51.5984C117.359 52.2504 116.731 52.8499 116.019 52.8528C114.563 52.8588 113.106 52.8552 111.592 52.8555Z" fill="#738F93"/>
<path d="M86.8933 42.6157C86.8594 42.3855 86.8303 42.1977 86.8296 42.0102C86.8267 41.2232 87.2146 40.7333 88.0017 40.7212C90.2495 40.6864 92.498 40.6995 94.7461 40.7118C95.2228 40.7145 95.6669 41.2275 95.6851 41.7142C95.7301 42.9306 95.2579 43.4231 94.0367 43.4243C92.2231 43.4264 90.408 43.3848 88.596 43.4441C87.8504 43.4686 87.3458 43.1922 86.8933 42.6157Z" fill="#738F93"/>
<path d="M93.8842 52.8547C93.2511 52.9261 92.8162 52.7945 92.6066 52.1614C92.4012 51.5411 92.5282 51.0113 92.9113 50.5295C92.9953 50.424 93.1979 50.3664 93.346 50.3659C95.7264 50.3562 98.1073 50.3705 100.488 50.3523C101.182 50.347 101.761 51.1236 101.783 51.6834C101.805 52.2117 101.071 52.846 100.457 52.8487C98.284 52.8581 96.1112 52.8538 93.8842 52.8547Z" fill="#738F93"/>
<path d="M85.5754 50.3557C86.9372 50.3559 88.2419 50.3504 89.5466 50.3588C90.4897 50.3651 90.8017 50.6858 90.8014 51.6125C90.8012 52.521 90.4762 52.8484 89.5282 52.8516C87.3346 52.8583 85.141 52.8579 82.9477 52.8516C82.1064 52.8494 81.718 52.4176 81.7149 51.519C81.7124 50.7429 82.1139 50.3649 82.9658 50.3581C83.8167 50.3513 84.6679 50.3559 85.5754 50.3557Z" fill="#738F93"/>
<path d="M113.071 45.4709C114.128 45.4717 115.129 45.4637 116.13 45.476C116.819 45.4847 117.435 46.4085 117.278 47.083C117.038 48.1166 116.418 48.2546 115.637 48.2993C114.602 48.3586 113.561 48.3313 112.523 48.3092C111.604 48.2894 110.89 47.5363 110.914 46.6602C110.933 45.9458 111.399 45.4809 112.108 45.4724C112.41 45.4688 112.713 45.4712 113.071 45.4709Z" fill="#738F93"/>
<path d="M84.0247 40.7181C84.7212 40.8919 85.1266 41.2425 85.1237 41.9763C85.1203 42.9112 84.667 43.4083 83.721 43.4211C82.8345 43.4332 81.9478 43.4356 81.0615 43.4206C79.8841 43.4006 79.2041 42.3531 79.7542 41.305C79.9086 41.0107 80.3991 40.7529 80.7525 40.7292C81.8224 40.6576 82.9006 40.7089 84.0247 40.7181Z" fill="#738F93"/>
<path d="M113.652 34.7892C114.445 34.7902 115.183 34.7815 115.922 34.7953C116.689 34.8096 117.103 35.1973 117.357 36.1053C117.427 36.3522 116.841 37.4504 116.545 37.5789C116.414 37.6355 116.249 37.6259 116.1 37.6268C115.191 37.6314 114.282 37.6368 113.374 37.6293C112.513 37.6222 111.786 36.7416 111.95 35.9226C112.064 35.3551 112.883 34.7922 113.652 34.7892Z" fill="#738F93"/>
<path d="M80.1759 37.364C79.4107 36.8791 79.6365 36.1508 79.7231 35.5371C79.802 34.9771 80.386 34.8394 80.8688 34.812C81.7539 34.7617 82.6631 34.6869 83.5234 34.8401C83.94 34.9142 84.3877 35.42 84.6062 35.8418C84.8656 36.3428 84.6086 36.9008 84.1507 37.2285C83.855 37.4403 83.4593 37.5835 83.0963 37.6145C82.4022 37.6733 81.6987 37.6513 81.001 37.6184C80.7345 37.6058 80.4736 37.471 80.1759 37.364Z" fill="#738F93"/>
</g>
<defs>
<clipPath id="clip0_5_2359">
<rect width="122.7" height="122.7" fill="white" transform="translate(0.139893 0.910034)"/>
</clipPath>
</defs>
</svg>
