<svg width="123" height="124" viewBox="0 0 123 124" fill="none" xmlns="http://www.w3.org/2000/svg">
<mask id="mask0_5_2406" style="mask-type:luminance" maskUnits="userSpaceOnUse" x="0" y="0" width="123" height="124">
<path d="M122.84 0.910034H0.139893V123.61H122.84V0.910034Z" fill="white"/>
</mask>
<g mask="url(#mask0_5_2406)">
<mask id="mask1_5_2406" style="mask-type:luminance" maskUnits="userSpaceOnUse" x="0" y="0" width="123" height="124">
<path d="M122.84 0.910034H0.139893V123.61H122.84V0.910034Z" fill="white"/>
</mask>
<g mask="url(#mask1_5_2406)">
<path d="M111.822 87.5924L113.101 77.9555C113.198 77.2294 113.138 76.491 112.925 75.7904C112.712 75.0896 112.35 74.4429 111.865 73.8938C111.381 73.3449 110.784 72.9064 110.115 72.6082C109.446 72.3101 108.721 72.159 107.988 72.1656H83.8826V67.9093C87.8961 66.3817 91.4448 63.8394 94.1822 60.5306C96.9196 57.2221 98.7523 53.2598 99.5013 49.0314H101.355C102.609 49.029 103.837 48.6686 104.895 47.9927C105.952 47.3168 106.794 46.3531 107.323 45.2151C107.851 44.0772 108.045 42.8122 107.88 41.5683C107.714 40.3243 107.198 39.1535 106.39 38.1929C107.674 37.8243 108.782 37.0071 109.514 35.8902C110.246 34.773 110.552 33.4304 110.377 32.1066C110.202 30.7828 109.557 29.5659 108.561 28.6773C107.564 27.7886 106.281 27.2874 104.946 27.2649H102.607C102.389 20.1394 99.3774 13.3856 94.2233 8.46067C89.0689 3.53578 82.1852 0.83474 75.0572 0.940428C67.929 1.04611 61.1284 3.95003 56.1224 9.02558C51.1166 14.1011 48.3069 20.9413 48.2996 28.07V35.8795C46.5828 35.9833 44.9746 36.7551 43.8197 38.0296C42.6646 39.3042 42.0543 40.9802 42.1194 42.6992C42.1845 44.4179 42.9199 46.0431 44.1682 47.2265C45.4163 48.4099 47.0782 49.0578 48.7982 49.0314H50.6515C51.4005 53.2598 53.233 57.2221 55.9707 60.5306C58.7081 63.8394 62.2567 66.3817 66.2702 67.9093V72.1656H42.8933C42.1607 72.159 41.4357 72.3101 40.7665 72.6082C40.0976 72.9064 39.5006 73.3449 39.0158 73.8938C38.5311 74.4429 38.17 75.0896 37.9568 75.7904C37.7438 76.491 37.6835 77.2294 37.7808 77.9555L39.0589 87.5413C37.7808 90.3148 38.0364 90.0977 33.1412 122.14C33.1134 122.323 33.1257 122.51 33.1773 122.689C33.2288 122.866 33.3186 123.031 33.4403 123.17C33.5618 123.31 33.7124 123.422 33.8815 123.497C34.0504 123.574 34.2339 123.612 34.4193 123.61H116.449C116.635 123.612 116.818 123.574 116.987 123.497C117.156 123.422 117.307 123.31 117.429 123.17C117.55 123.031 117.64 122.866 117.691 122.689C117.743 122.51 117.755 122.323 117.727 122.14C112.922 90.3789 113.203 90.7366 111.822 87.5924ZM101.355 46.475H99.8336C99.936 45.2994 99.9103 45.1203 99.9103 38.4102H101.393C101.942 38.3793 102.491 38.4606 103.007 38.6494C103.523 38.8381 103.995 39.13 104.395 39.5075C104.794 39.8851 105.112 40.34 105.329 40.8446C105.547 41.3492 105.659 41.893 105.659 42.4426C105.659 42.9923 105.547 43.5358 105.329 44.0406C105.112 44.5452 104.794 45.0002 104.395 45.3778C103.995 45.7553 103.523 46.0472 103.007 46.2359C102.491 46.4247 101.942 46.506 101.393 46.475H101.355ZM104.895 29.8595C105.695 29.8595 106.462 30.1772 107.028 30.7431C107.594 31.3086 107.911 32.0761 107.911 32.8759C107.911 33.676 107.594 34.4432 107.028 35.0088C106.462 35.5746 105.695 35.8924 104.895 35.8924H73.76C79.2629 31.9585 85.8606 29.8486 92.6251 29.8595H104.895ZM57.0421 32.9655H68.9541V35.8539H57.0421V32.9655ZM57.1188 30.4091C57.3451 29.0127 58.0607 27.7426 59.1381 26.8259C60.2153 25.9091 61.5837 25.4057 62.9982 25.4057C64.4125 25.4057 65.7811 25.9091 66.8581 26.8259C67.9355 27.7426 68.6514 29.0127 68.8774 30.4091H57.1188ZM50.856 28.07C50.8526 21.6124 53.3884 15.4123 57.9162 10.8075C62.4438 6.20285 68.6003 3.56284 75.0572 3.45717C81.514 3.35146 87.7536 5.7886 92.4298 10.2426C97.1054 14.6966 99.8428 20.8105 100.051 27.2649H92.6251C85.3935 27.2479 78.336 29.4812 72.4306 33.6557L71.5105 34.2946V31.6874C71.5105 29.4297 70.6136 27.2646 69.0173 25.6681C67.421 24.0717 65.2557 23.175 62.9982 23.175C60.7405 23.175 58.5754 24.0717 56.9789 25.6681C55.3826 27.2646 54.4857 29.4297 54.4857 31.6874V35.8539H50.856V28.07ZM48.7982 46.475C48.2495 46.506 47.7002 46.4247 47.1842 46.2359C46.6682 46.0472 46.1961 45.7553 45.7965 45.3778C45.3972 45.0002 45.0792 44.5452 44.8616 44.0406C44.6443 43.5358 44.5322 42.9923 44.5322 42.4426C44.5322 41.893 44.6443 41.3492 44.8616 40.8446C45.0792 40.34 45.3972 39.8851 45.7965 39.5075C46.1961 39.13 46.6682 38.8381 47.1842 38.6494C47.7002 38.4606 48.2495 38.3793 48.7982 38.4102H50.2807C50.2807 44.8008 50.2807 45.2737 50.3574 46.475H48.7982ZM53.2587 49.0314C52.7476 46.475 52.8371 45.197 52.8371 38.4102H97.2775V44.7369C97.2734 50.2589 95.2153 55.5817 91.5033 59.67C87.7916 63.7583 82.6914 66.3195 77.1956 66.8551C71.6997 67.3909 66.2012 65.8629 61.7695 62.5684C57.338 59.2738 54.2906 54.4486 53.2204 49.0314H53.2587ZM68.8263 68.7401C72.9263 69.7946 77.2263 69.7946 81.3265 68.7401V72.1656H79.3836C73.7343 70.8873 74.1177 71.0025 79.3836 72.1656H71.2293C73.6194 71.6285 74.9742 71.3091 75.0637 71.3091H74.8592C70.373 72.3062 71.7404 72.1399 68.7881 72.1399L68.8263 68.7401ZM42.8933 74.7217H108.078C108.444 74.7183 108.808 74.7941 109.143 74.9434C109.478 75.0929 109.776 75.3127 110.019 75.5881C110.261 75.8633 110.442 76.1873 110.548 76.5385C110.654 76.8896 110.683 77.2594 110.634 77.6232C109.151 88.7429 110.889 75.7185 105.815 113.781H45.1811L40.3498 77.5975C40.3043 77.2372 40.3362 76.871 40.4434 76.524C40.5506 76.1769 40.7305 75.8565 40.9713 75.5845C41.2118 75.3122 41.5078 75.0946 41.8391 74.9458C42.1707 74.797 42.5298 74.7207 42.8933 74.7217ZM40.0047 94.3793C43.2382 118.574 42.7781 113.181 42.7781 121.054H35.9275L40.0047 94.3793ZM45.3345 116.338H53.5656V121.054H45.3345V116.338ZM56.1217 121.054V116.338H94.8235V121.054H56.1217ZM97.3796 121.054V116.338H105.598V121.054H97.3796ZM108.154 121.054C108.154 113.117 107.694 118.498 110.928 94.3537L115.005 121.054H108.154Z" fill="#738F93"/>
<path d="M12.6094 29.8394L9.19831 33.2506C9.15395 33.2949 9.15395 33.367 9.19831 33.4113L12.6094 36.8224" fill="#738F93"/>
<path d="M24.0813 29.8394L27.4925 33.2506C27.5368 33.2949 27.5368 33.367 27.4925 33.4113L24.0813 36.8224" fill="#738F93"/>
<path d="M44.0946 60.1896L37.704 52.9556C37.4475 52.6717 37.3061 52.3027 37.3078 51.92V23.7247C37.3078 22.632 36.8746 21.5839 36.1031 20.81C35.3318 20.0362 34.2849 19.5997 33.1922 19.5964H4.26823C3.17334 19.5964 2.12327 20.0313 1.34906 20.8056C0.574841 21.5797 0.139893 22.6299 0.139893 23.7247V60.5347C0.139893 61.6296 0.574841 62.6797 1.34906 63.4538C2.12327 64.228 3.17334 64.6632 4.26823 64.6632H42.0624C42.581 64.6637 43.0885 64.5148 43.5246 64.2343C43.9605 63.9538 44.3066 63.5538 44.521 63.0816C44.7354 62.6097 44.8092 62.0857 44.7337 61.5729C44.658 61.0599 44.4363 60.5797 44.0946 60.1896ZM2.69614 60.5347V23.7247C2.69948 23.3088 2.86618 22.9109 3.1603 22.6168C3.45439 22.3227 3.85233 22.156 4.26823 22.1527H33.2432C33.658 22.156 34.0547 22.3231 34.3468 22.6176C34.6389 22.9121 34.8025 23.31 34.8025 23.7247V51.92C34.8178 52.9055 35.1851 53.8532 35.8381 54.5916C42.5481 62.2602 42.2287 61.8384 42.2287 61.9662C42.2287 62.094 45.0149 62.0557 4.30659 62.0557C3.89267 62.0628 3.49248 61.9074 3.19152 61.6233C2.89057 61.3391 2.71277 60.9483 2.69614 60.5347Z" fill="#738F93"/>
<path d="M26.9804 48.303H26.5457V46.9225C26.5457 43.4589 21.8167 42.3596 21.8167 44.7498C21.8167 45.0888 21.9514 45.4138 22.1911 45.6534C22.4307 45.8933 22.7559 46.0278 23.0949 46.0278C23.3321 46.0278 23.5596 46.1222 23.7275 46.2899C23.8952 46.4576 23.9896 46.6854 23.9896 46.9225V52.1756C23.9911 52.2942 23.9693 52.4118 23.9251 52.522C23.8809 52.6321 23.8153 52.732 23.732 52.8165C23.6487 52.901 23.5495 52.968 23.4401 53.0137C23.3308 53.0595 23.2134 53.0832 23.0949 53.083C22.7559 53.083 22.4307 53.2178 22.1911 53.4573C21.9514 53.6972 21.8167 54.0222 21.8167 54.3613C21.8167 56.7257 26.5457 55.6393 26.5457 52.1756V50.8591H26.9804C27.3192 50.8591 27.6445 50.7245 27.8841 50.4847C28.1236 50.2451 28.2584 49.9201 28.2584 49.581C28.2584 49.2422 28.1236 48.917 27.8841 48.6771C27.6445 48.4375 27.3192 48.303 26.9804 48.303ZM11.8474 46.9225C11.8474 46.6854 11.9416 46.4576 12.1093 46.2899C12.2772 46.1222 12.5047 46.0278 12.7421 46.0278C13.0809 46.0278 13.4061 45.8933 13.6458 45.6534C13.8854 45.4138 14.0202 45.0888 14.0202 44.7498C14.0202 42.3853 9.29106 43.4715 9.29106 46.9225V48.2773H8.85651C8.51752 48.2773 8.19243 48.4121 7.95274 48.6517C7.71305 48.8913 7.57837 49.2166 7.57837 49.5554C7.57837 49.8944 7.71305 50.2197 7.95274 50.4593C8.19243 50.6989 8.51752 50.8335 8.85651 50.8335H9.29106V52.1756C9.29106 55.6521 14.0202 56.7385 14.0202 54.3613C14.0202 54.0222 13.8854 53.6972 13.6458 53.4573C13.4061 53.2178 13.0809 53.083 12.7421 53.083C12.6234 53.0832 12.5061 53.0595 12.3967 53.0137C12.2873 52.968 12.1881 52.901 12.1048 52.8165C12.0215 52.732 11.956 52.6321 11.9117 52.522C11.8675 52.4118 11.8456 52.2942 11.8474 52.1756V46.9225ZM19.3883 46.309L14.672 51.038C14.4339 51.2775 14.3003 51.6016 14.3003 51.9392C14.3003 52.2768 14.4339 52.6009 14.672 52.8402C14.9114 53.0784 15.2354 53.2119 15.573 53.2119C15.9107 53.2119 16.2347 53.0784 16.4742 52.8402L21.2032 48.1239C21.4439 47.8833 21.5791 47.5569 21.5791 47.2166C21.5791 46.8761 21.4439 46.5498 21.2032 46.309C20.9625 46.0685 20.6361 45.9332 20.2957 45.9332C19.9553 45.9332 19.6289 46.0685 19.3883 46.309Z" fill="#738F93"/>
</g>
</g>
</svg>
