<svg width="120" height="155" viewBox="0 0 120 155" fill="none" xmlns="http://www.w3.org/2000/svg">
<path d="M109.279 37.808H129.15L104.792 13.45V33.321C104.792 35.885 106.715 37.808 109.279 37.808Z" fill="#738F93"/>
<path d="M80.4338 96.7798H75.3059C72.7419 96.7798 70.8188 98.7028 70.8188 101.267V114.728C70.8188 117.292 72.7419 119.215 75.3059 119.215H79.1518L74.6648 114.728L77.8699 110.882L84.2799 117.292C84.9208 116.651 84.9209 115.369 84.9209 114.728V101.267C84.9209 98.7028 82.3568 96.7798 80.4338 96.7798Z" fill="#738F93"/>
<path d="M97.0998 33.3209V13.45H38.7688C31.7178 13.45 26.5898 18.578 26.5898 25.629V129.471C26.5898 135.881 31.7178 141.65 38.7688 141.65H116.971C123.381 141.65 129.15 136.522 129.15 129.471V45.5H109.279C102.228 45.5 97.0998 40.372 97.0998 33.3209ZM48.3838 105.754H52.8708C57.9988 105.754 61.8448 109.6 61.8448 114.728C61.8448 119.856 57.9988 123.702 52.8708 123.702H48.3838C43.2558 123.702 39.4098 119.856 39.4098 114.728H43.8968C43.8968 117.292 45.8198 119.215 48.3838 119.215H52.8708C55.4348 119.215 57.3578 117.292 57.3578 114.728C57.3578 112.164 55.4348 110.241 52.8708 110.241H48.3838C43.2558 110.241 39.4098 106.395 39.4098 101.267C39.4098 96.1389 43.2558 92.293 48.3838 92.293H52.8708C57.9988 92.293 61.8448 96.1389 61.8448 101.267H57.3578C57.3578 98.7029 55.4348 96.78 52.8708 96.78H48.3838C45.8198 96.78 43.8968 98.7029 43.8968 101.267C43.8968 103.831 45.8198 105.754 48.3838 105.754ZM87.4848 126.907L83.6388 123.061C82.9978 123.702 81.7158 123.702 80.4338 123.702H75.9468C70.8188 123.702 66.9728 119.856 66.9728 114.728V101.267C66.9728 96.1389 70.8188 92.293 75.9468 92.293H80.4338C85.5618 92.293 89.4078 96.1389 89.4078 101.267V114.728C89.4078 117.292 88.7668 119.215 87.4848 120.497L90.6898 123.702L87.4848 126.907ZM116.33 123.702H93.8948V92.293H98.3818V119.215H116.33V123.702Z" fill="#738F93"/>
</svg>
